<?xml version="1.0" encoding="utf-8"?>
<!-- Generator: Adobe Illustrator 27.5.0, SVG Export Plug-In . SVG Version: 6.00 Build 0)  -->
<svg version="1.1" id="_x5F__1_" xmlns="http://www.w3.org/2000/svg" xmlns:xlink="http://www.w3.org/1999/xlink" x="0px" y="0px"
	 viewBox="0 0 550 450" style="enable-background:new 0 0 550 450;" xml:space="preserve">
<g id="BG">
	<rect id="Sky_1_" style="fill:#CCEBFA;" width="550" height="450"/>
	<path style="fill:#B7DBEB;" d="M534.92,161.034v3.323h1.662v3.323h-1.662v3.323h1.662v3.323h1.661v19.38h-22.891v-21.474
		c0-11.638-8.27-21.344-19.254-23.564v-2.809h-24.591v-3.323h1.661v-3.323h1.662v-3.323h-1.662v-3.323h1.662v-3.323h-21.926
		L420,110.056l-32.905,19.187h-21.926v3.323h1.662v3.323h-1.662v3.323h1.662v3.323h1.661v3.323h-24.591v3.323h1.661v3.323h-1.661
		v3.323h1.661v3.323h1.661v34.555H108.481v-12.265h-5.96v-24.282H85.613v-17.915H75.307c-2.28-10.906-11.948-19.098-23.531-19.098
		H35.859l-0.153-0.089l-9.337,5.444h-13.23v7.715L2.8,139.244H0V450h550V161.034H534.92z"/>
	<path style="fill:#A4CADB;" d="M530.288,223.595v59.548h-13.336v-32.147c0-11.095-8.994-20.089-20.089-20.089H473.5v52.236H71.041
		v-36.736H59.783c-0.425-13.631-10.976-24.706-24.386-25.949v-8.549c0-1.225-0.993-2.218-2.218-2.218
		c-1.225,0-2.218,0.993-2.218,2.218v8.504c-13.69,0.967-24.548,12.163-24.979,25.994H0v36.736v7.706V450h550V317.416v-34.273
		v-59.548H530.288z"/>
	<g id="Clouds_1_">
		<path style="fill:#EEF8FD;" d="M347.629,54.347h-7.428c-4.655,0-8.429-3.774-8.429-8.429v-5.709c0-4.655,3.774-8.429,8.429-8.429
			h7.428c4.655,0,8.429,3.774,8.429,8.429v5.709C356.058,50.573,352.284,54.347,347.629,54.347z"/>
		<path style="fill:#EEF8FD;" d="M517.096,113.941h-35.285c-4.655,0-8.429-3.774-8.429-8.429v-5.709
			c0-4.655,3.774-8.429,8.429-8.429h35.285c4.655,0,8.429,3.774,8.429,8.429v5.709C525.525,110.167,521.751,113.941,517.096,113.941
			z"/>
		<path style="fill:#EEF8FD;" d="M215.383,23.504h-3.812c-0.266-5.996-5.197-10.778-11.258-10.778h-25.342
			c-6.061,0-10.992,4.783-11.258,10.778h-19.521c-6.232,0-11.283,5.052-11.283,11.283s5.052,11.283,11.283,11.283h71.191
			c6.232,0,11.283-5.052,11.283-11.283S221.615,23.504,215.383,23.504z"/>
		<path style="fill:#EEF8FD;" d="M496.924,31.504h-7.274c-0.18-6.075-5.148-10.947-11.266-10.947H464.19
			c-6.118,0-11.087,4.872-11.266,10.947h-47.732c-6.232,0-11.283,5.052-11.283,11.283c0,5.74,4.29,10.469,9.836,11.18h-33.159
			c-6.232,0-11.283,5.052-11.283,11.283c0,6.232,5.052,11.283,11.283,11.283h74.125c6.232,0,11.283-5.052,11.283-11.283
			c0-5.74-4.29-10.469-9.836-11.18h50.766c6.232,0,11.283-5.052,11.283-11.283S503.156,31.504,496.924,31.504z"/>
		<path style="fill:#EEF8FD;" d="M106.05,55.968H94.279c-0.331-5.934-5.234-10.648-11.251-10.648h-1.718
			c-3.475,0-6.581,1.574-8.651,4.044c-2.07-2.471-5.175-4.044-8.651-4.044h-1.718c-6.017,0-10.92,4.714-11.251,10.648h-5.452
			c-6.232,0-11.283,5.052-11.283,11.283c0,6.232,5.052,11.283,11.283,11.283h60.464c6.232,0,11.283-5.052,11.283-11.283
			C117.333,61.02,112.282,55.968,106.05,55.968z"/>
	</g>
	<g id="Road_1_">
		<rect y="407" style="fill:#9C9292;" width="550" height="43"/>
		<rect y="392" style="fill:#D6CBC9;" width="550" height="42"/>
	</g>
</g>
<g id="Bank">
	<g>
		<g>
			<g>
				<rect x="60.259" y="194.91" style="fill:#D7AA81;" width="429.482" height="173.558"/>
				<polygon style="fill:#C38B5F;" points="489.741,194.909 60.259,194.91 153.714,376.311 489.741,376.311 				"/>
				<polygon style="fill:#C38B5F;" points="60.259,199.813 60.259,194.91 62.785,199.813 				"/>
			</g>
			<g>
				<rect x="55.356" y="378.273" style="fill:#666060;" width="439.287" height="13.728"/>
				<rect x="55.356" y="378.273" style="fill:#544F4F;" width="439.287" height="4.903"/>
				<rect x="50.454" y="368.467" style="fill:#9C9292;" width="449.093" height="9.806"/>
			</g>
			<g>
				<rect x="55.356" y="165.494" style="fill:#D7AA81;" width="439.287" height="9.806"/>
				<polygon style="fill:#C38B5F;" points="55.356,165.459 60.356,175.404 494.644,175.404 494.644,165.459 				"/>
				<rect x="55.356" y="160.591" style="fill:#C38B5F;" width="439.287" height="9.806"/>
				<polygon style="fill:#A67247;" points="57.839,170.396 494.644,170.396 494.644,165.459 55.356,165.459 				"/>
				<polygon style="fill:#A67247;" points="489.741,194.91 60.259,194.91 62.785,199.813 489.741,199.813 				"/>
				<rect x="50.454" y="175.299" style="fill:#9C9292;" width="449.093" height="9.806"/>
				<rect x="50.454" y="155.688" style="fill:#9C9292;" width="449.093" height="9.806"/>
				<rect x="55.356" y="185.105" style="fill:#666060;" width="439.287" height="9.806"/>
				<rect x="55.356" y="185.105" style="fill:#544F4F;" width="439.287" height="4.903"/>
			</g>
		</g>
		<g>
			<g>
				<path style="fill:#A67247;" d="M481.406,351.394c0,0-3.856,0-9.56,0c-8.704,0-22.516,0-31.378,0c-5.972,0-10.051,0-10.051,0
					v4.903l4.903,9.805c0,0,1.958,0,5.148,0c7.018,0,21.116,0,31.378,0c8.284,0,14.463,0,14.463,0V361.2L481.406,351.394z"/>
				<path style="fill:#A67247;" d="M481.406,296.887c0,0-3.856,0-9.56,0c-8.704,0-22.516,0-31.378,0c-5.972,0-10.051,0-10.051,0
					v4.903l3.922,9.806c0,0,2.939,0,6.128,0c7.018,0,21.116,0,31.378,0c8.284,0,14.463,0,14.463,0v-4.903L481.406,296.887z"/>
				<path style="fill:#EBDAAB;" d="M477.484,351.394c0,0-2.187,0-5.638,0c-7.81,0-23.306,0-31.378,0c-3.732,0-6.128,0-6.128,0
					s0-1.469,0-3.922c0-5.2,0-15.591,0-24.807c0-11.174,0-20.875,0-20.875s2.396,0,6.128,0c8.072,0,23.567,0,31.378,0
					c3.451,0,5.638,0,5.638,0s0,9.702,0,20.875c0,9.216,0,19.607,0,24.807C477.484,349.925,477.484,351.394,477.484,351.394z"/>
				<path style="fill:#D4A582;" d="M477.484,361.2c0,0-2.187,0-5.638,0c-7.81,0-23.306,0-31.378,0c-3.732,0-6.128,0-6.128,0v-4.903
					c0,0,2.396,0,6.128,0c8.072,0,23.567,0,31.378,0c3.451,0,5.638,0,5.638,0V361.2z"/>
				<path style="fill:#D4A582;" d="M477.484,311.595c0,0-2.187,0-5.638,0c-7.81,0-23.306,0-31.378,0c-3.732,0-6.128,0-6.128,0
					v-1.961v-7.845c0,0,2.396,0,6.128,0c8.072,0,23.567,0,31.378,0c3.451,0,5.638,0,5.638,0V311.595z"/>
				<path style="fill:#FCF5D6;" d="M481.406,356.297c0,0-3.856,0-9.56,0c-8.704,0-22.516,0-31.378,0c-5.972,0-10.051,0-10.051,0
					v-4.903c0,0,4.078,0,10.051,0c8.861,0,22.674,0,31.378,0c5.704,0,9.56,0,9.56,0V356.297z"/>
				<path style="fill:#FCF5D6;" d="M481.406,301.79c0,0-3.856,0-9.56,0c-8.704,0-22.516,0-31.378,0c-5.972,0-10.051,0-10.051,0
					v-4.903c0,0,4.078,0,10.051,0c8.861,0,22.674,0,31.378,0c5.704,0,9.56,0,9.56,0V301.79z"/>
				<path style="fill:#375BA6;" d="M439.242,348.452c0,0,0.44,0,1.226,0c5.083,0,27.368,0,31.378,0c0.476,0,0.735,0,0.735,0
					s0-0.347,0-0.98c0-3.198,0-14.98,0-24.807c0-9.207,0-16.953,0-16.953s-0.259,0-0.735,0c-4.01,0-26.295,0-31.378,0
					c-0.786,0-1.226,0-1.226,0s0,7.746,0,16.953c0,9.827,0,21.609,0,24.807C439.242,348.106,439.242,348.452,439.242,348.452z"/>
				<path style="fill:#EBDAAB;" d="M472.581,320.495c0,0-0.259,0-0.735,0c-4.01,0-26.295,0-31.378,0c-0.786,0-1.226,0-1.226,0
					v-2.942c0,0,0.44,0,1.226,0c5.083,0,27.368,0,31.378,0c0.476,0,0.735,0,0.735,0V320.495z"/>
				<path style="fill:#EBDAAB;" d="M457.189,319.967c0,0,0,1.015,0,2.698c0,5.483,0,19.29,0,24.807c0,1.706,0,2.737,0,2.737h-2.477
					c0,0,0-1.031,0-2.737c0-5.517,0-19.323,0-24.807c0-1.683,0-2.698,0-2.698H457.189z"/>
			</g>
			<g>
				<path style="fill:#A67247;" d="M481.406,265.105c0,0-3.856,0-9.56,0c-8.704,0-22.516,0-31.378,0c-5.972,0-10.051,0-10.051,0
					v4.903l4.903,9.806c0,0,1.958,0,5.148,0c7.018,0,21.116,0,31.378,0c8.284,0,14.463,0,14.463,0v-4.903L481.406,265.105z"/>
				<path style="fill:#A67247;" d="M481.406,210.598c0,0-3.856,0-9.56,0c-8.704,0-22.516,0-31.378,0c-5.972,0-10.051,0-10.051,0
					v4.903l3.922,9.806c0,0,2.939,0,6.128,0c7.018,0,21.116,0,31.378,0c8.284,0,14.463,0,14.463,0v-4.903L481.406,210.598z"/>
				<path style="fill:#EBDAAB;" d="M477.484,265.105c0,0-2.187,0-5.638,0c-7.81,0-23.306,0-31.378,0c-3.732,0-6.128,0-6.128,0
					s0-1.469,0-3.922c0-5.2,0-15.591,0-24.807c0-11.174,0-20.875,0-20.875s2.396,0,6.128,0c8.072,0,23.567,0,31.378,0
					c3.451,0,5.638,0,5.638,0s0,9.702,0,20.875c0,9.216,0,19.607,0,24.807C477.484,263.637,477.484,265.105,477.484,265.105z"/>
				<path style="fill:#D4A582;" d="M477.484,274.911c0,0-2.187,0-5.638,0c-7.81,0-23.306,0-31.378,0c-3.732,0-6.128,0-6.128,0
					v-4.903c0,0,2.396,0,6.128,0c8.072,0,23.567,0,31.378,0c3.451,0,5.638,0,5.638,0V274.911z"/>
				<path style="fill:#D4A582;" d="M477.484,225.307c0,0-2.187,0-5.638,0c-7.81,0-23.306,0-31.378,0c-3.732,0-6.128,0-6.128,0
					v-1.961v-7.845c0,0,2.396,0,6.128,0c8.072,0,23.567,0,31.378,0c3.451,0,5.638,0,5.638,0V225.307z"/>
				<path style="fill:#FCF5D6;" d="M481.406,270.008c0,0-3.856,0-9.56,0c-8.704,0-22.516,0-31.378,0c-5.972,0-10.051,0-10.051,0
					v-4.903c0,0,4.078,0,10.051,0c8.861,0,22.674,0,31.378,0c5.704,0,9.56,0,9.56,0V270.008z"/>
				<path style="fill:#FCF5D6;" d="M481.406,215.501c0,0-3.856,0-9.56,0c-8.704,0-22.516,0-31.378,0c-5.972,0-10.051,0-10.051,0
					v-4.903c0,0,4.078,0,10.051,0c8.861,0,22.674,0,31.378,0c5.704,0,9.56,0,9.56,0V215.501z"/>
				<path style="fill:#375BA6;" d="M439.242,262.164c0,0,0.44,0,1.226,0c5.083,0,27.368,0,31.378,0c0.476,0,0.735,0,0.735,0
					s0-0.347,0-0.981c0-3.198,0-14.98,0-24.807c0-9.207,0-16.953,0-16.953s-0.259,0-0.735,0c-4.01,0-26.295,0-31.378,0
					c-0.786,0-1.226,0-1.226,0s0,7.746,0,16.953c0,9.827,0,21.609,0,24.807C439.242,261.817,439.242,262.164,439.242,262.164z"/>
				<path style="fill:#EBDAAB;" d="M472.581,234.206c0,0-0.259,0-0.735,0c-4.01,0-26.295,0-31.378,0c-0.786,0-1.226,0-1.226,0
					v-2.942c0,0,0.44,0,1.226,0c5.083,0,27.368,0,31.378,0c0.476,0,0.735,0,0.735,0V234.206z"/>
				<path style="fill:#EBDAAB;" d="M457.189,233.678c0,0,0,1.015,0,2.698c0,5.484,0,19.29,0,24.807c0,1.706,0,2.737,0,2.737h-2.477
					c0,0,0-1.031,0-2.737c0-5.517,0-19.323,0-24.807c0-1.683,0-2.698,0-2.698H457.189z"/>
			</g>
			<g>
				<path style="fill:#C38B5F;" d="M115.66,351.394c0,0-3.856,0-9.56,0c-8.704,0-22.516,0-31.378,0c-5.972,0-10.051,0-10.051,0
					v4.903l4.903,9.805c0,0,1.958,0,5.148,0c7.018,0,21.116,0,31.378,0c8.284,0,14.463,0,14.463,0V361.2L115.66,351.394z"/>
				<path style="fill:#C38B5F;" d="M115.66,296.887c0,0-3.856,0-9.56,0c-8.704,0-22.516,0-31.378,0c-5.972,0-10.051,0-10.051,0
					v4.903l3.922,9.806c0,0,2.939,0,6.128,0c7.018,0,21.116,0,31.378,0c8.284,0,14.463,0,14.463,0v-4.903L115.66,296.887z"/>
				<path style="fill:#A67247;" d="M112.796,296.887l7.577,14.708c0.114,0,0.189,0,0.189,0v-4.903l-4.903-9.806
					C115.66,296.887,114.606,296.887,112.796,296.887z"/>
				<path style="fill:#EAD7AB;" d="M111.738,351.394c0,0-2.187,0-5.638,0c-7.81,0-23.306,0-31.378,0c-3.732,0-6.128,0-6.128,0
					s0-1.469,0-3.922c0-5.2,0-15.591,0-24.807c0-11.174,0-20.875,0-20.875s2.396,0,6.128,0c8.072,0,23.567,0,31.378,0
					c3.451,0,5.638,0,5.638,0s0,9.702,0,20.875c0,9.216,0,19.607,0,24.807C111.738,349.925,111.738,351.394,111.738,351.394z"/>
				<path style="fill:#D5A882;" d="M111.738,361.2c0,0-2.187,0-5.638,0c-7.81,0-23.306,0-31.378,0c-3.732,0-6.128,0-6.128,0v-4.903
					c0,0,2.396,0,6.128,0c8.072,0,23.567,0,31.378,0c3.451,0,5.638,0,5.638,0V361.2z"/>
				<path style="fill:#D5A882;" d="M111.738,311.595c0,0-2.187,0-5.638,0c-7.81,0-23.306,0-31.378,0c-3.732,0-6.128,0-6.128,0
					v-1.961v-7.845c0,0,2.396,0,6.128,0c8.072,0,23.567,0,31.378,0c3.451,0,5.638,0,5.638,0V311.595z"/>
				<path style="fill:#FCF5D6;" d="M115.66,356.297c0,0-3.856,0-9.56,0c-8.704,0-22.516,0-31.378,0c-5.972,0-10.051,0-10.051,0
					v-4.903c0,0,4.078,0,10.051,0c8.861,0,22.674,0,31.378,0c5.704,0,9.56,0,9.56,0V356.297z"/>
				<path style="fill:#FCF5D6;" d="M115.66,301.79c0,0-3.856,0-9.56,0c-8.704,0-22.516,0-31.378,0c-5.972,0-10.051,0-10.051,0
					v-4.903c0,0,4.078,0,10.051,0c8.861,0,22.674,0,31.378,0c5.704,0,9.56,0,9.56,0V301.79z"/>
				<path style="fill:#4B7EB0;" d="M73.497,348.452c0,0,0.44,0,1.226,0c5.083,0,27.368,0,31.378,0c0.476,0,0.735,0,0.735,0
					s0-0.347,0-0.98c0-3.198,0-14.98,0-24.807c0-9.207,0-16.953,0-16.953s-0.259,0-0.735,0c-4.01,0-26.295,0-31.378,0
					c-0.786,0-1.226,0-1.226,0s0,7.746,0,16.953c0,9.827,0,21.609,0,24.807C73.497,348.106,73.497,348.452,73.497,348.452z"/>
				<path style="fill:#EAD7AB;" d="M106.835,320.495c0,0-0.259,0-0.735,0c-4.01,0-26.295,0-31.378,0c-0.786,0-1.226,0-1.226,0
					v-2.942c0,0,0.44,0,1.226,0c5.083,0,27.368,0,31.378,0c0.476,0,0.735,0,0.735,0V320.495z"/>
				<path style="fill:#EAD7AB;" d="M91.443,319.967c0,0,0,1.015,0,2.698c0,5.483,0,19.29,0,24.807c0,1.706,0,2.737,0,2.737h-2.477
					c0,0,0-1.031,0-2.737c0-5.517,0-19.323,0-24.807c0-1.683,0-2.698,0-2.698H91.443z"/>
			</g>
			<g>
				<path style="fill:#C38B5F;" d="M115.66,265.105c0,0-3.856,0-9.56,0c-8.704,0-22.516,0-31.378,0c-5.972,0-10.051,0-10.051,0
					v4.903l4.903,9.806c0,0,1.958,0,5.148,0c7.018,0,21.116,0,31.378,0c8.284,0,14.463,0,14.463,0v-4.903L115.66,265.105z"/>
				<path style="fill:#A67247;" d="M115.66,210.598c0,0-3.856,0-9.56,0c-8.704,0-22.516,0-31.378,0c-5.972,0-10.051,0-10.051,0
					v4.903l3.922,9.806c0,0,2.939,0,6.128,0c7.018,0,21.116,0,31.378,0c8.284,0,14.463,0,14.463,0v-4.903L115.66,210.598z"/>
				<path style="fill:#A67247;" d="M120.563,279.814v-4.903l-4.903-9.806c0,0-3.856,0-9.56,0c-2.806,0-6.146,0-9.677,0l7.578,14.708
					c0.714,0,1.416,0,2.099,0C114.384,279.814,120.563,279.814,120.563,279.814z"/>
				<path style="fill:#A67247;" d="M106.1,210.598c-8.704,0-22.516,0-31.378,0c-2.521,0-4.699,0-6.38,0l7.577,14.708
					c7.33,0,20.469,0,30.181,0c8.284,0,14.463,0,14.463,0v-4.903l-4.903-9.805C115.66,210.598,111.804,210.598,106.1,210.598z"/>
				<path style="fill:#EAD7AB;" d="M111.738,265.105c0,0-2.187,0-5.638,0c-7.81,0-23.306,0-31.378,0c-3.732,0-6.128,0-6.128,0
					s0-1.469,0-3.922c0-5.2,0-15.591,0-24.807c0-11.174,0-20.875,0-20.875s2.396,0,6.128,0c8.072,0,23.567,0,31.378,0
					c3.451,0,5.638,0,5.638,0s0,9.702,0,20.875c0,9.216,0,19.607,0,24.807C111.738,263.637,111.738,265.105,111.738,265.105z"/>
				<path style="fill:#D5A882;" d="M74.722,215.501c-1.545,0-2.843,0-3.855,0l25.555,49.604c3.697,0,7.106,0,9.677,0
					c3.451,0,5.638,0,5.638,0s0-1.469,0-3.922c0-5.2,0-15.591,0-24.807c0-11.174,0-20.875,0-20.875s-2.187,0-5.638,0
					C98.29,215.501,82.794,215.501,74.722,215.501z"/>
				<path style="fill:#D5A882;" d="M111.738,274.911c0,0-2.187,0-5.638,0c-7.81,0-23.306,0-31.378,0c-3.732,0-6.128,0-6.128,0
					v-4.903c0,0,2.396,0,6.128,0c8.072,0,23.567,0,31.378,0c3.451,0,5.638,0,5.638,0V274.911z"/>
				<path style="fill:#C38B5F;" d="M98.949,270.008l2.526,4.903c1.713,0,3.288,0,4.625,0c3.451,0,5.638,0,5.638,0v-4.903
					c0,0-2.187,0-5.638,0C104.126,270.008,101.66,270.008,98.949,270.008z"/>
				<path style="fill:#C38B5F;" d="M111.738,225.307c0,0-2.187,0-5.638,0c-7.81,0-23.306,0-31.378,0c-3.732,0-6.128,0-6.128,0
					v-1.961v-7.845c0,0,2.396,0,6.128,0c8.072,0,23.567,0,31.378,0c3.451,0,5.638,0,5.638,0V225.307z"/>
				<path style="fill:#FCF5D6;" d="M115.66,270.008c0,0-3.856,0-9.56,0c-8.704,0-22.516,0-31.378,0c-5.972,0-10.051,0-10.051,0
					v-4.903c0,0,4.078,0,10.051,0c8.861,0,22.674,0,31.378,0c5.704,0,9.56,0,9.56,0V270.008z"/>
				<path style="fill:#FCF5D6;" d="M115.66,215.501c0,0-3.856,0-9.56,0c-8.704,0-22.516,0-31.378,0c-5.972,0-10.051,0-10.051,0
					v-4.903c0,0,4.078,0,10.051,0c8.861,0,22.674,0,31.378,0c5.704,0,9.56,0,9.56,0V215.501z"/>
				<path style="fill:#4B7EB0;" d="M73.497,262.164c0,0,0.44,0,1.226,0c5.083,0,27.368,0,31.378,0c0.476,0,0.735,0,0.735,0
					s0-0.347,0-0.981c0-3.198,0-14.98,0-24.807c0-9.207,0-16.953,0-16.953s-0.259,0-0.735,0c-4.01,0-26.295,0-31.378,0
					c-0.786,0-1.226,0-1.226,0s0,7.746,0,16.953c0,9.827,0,21.609,0,24.807C73.497,261.817,73.497,262.164,73.497,262.164z"/>
				<path style="fill:#EAD7AB;" d="M106.1,231.264c-4.01,0-26.295,0-31.378,0c-0.786,0-1.226,0-1.226,0v2.942c0,0,0.44,0,1.226,0
					c2.308,0,8.164,0,14.244,0c0,0.46,0,1.199,0,2.17c0,5.484,0,19.29,0,24.807c0,1.706,0,2.737,0,2.737h2.477c0,0,0-1.031,0-2.737
					c0-5.517,0-19.323,0-24.807c0-0.971,0-1.711,0-2.17c6.485,0,12.715,0,14.657,0c0.476,0,0.735,0,0.735,0v-2.942
					C106.835,231.264,106.576,231.264,106.1,231.264z"/>
				<path style="fill:#D5A882;" d="M78.989,231.264l1.515,2.942c2.497,0,5.451,0,8.462,0c0,0.46,0,1.199,0,2.17
					c0,3.096,0,8.843,0,14.255l2.477,4.808c0-6.437,0-15.015,0-19.063c0-0.971,0-1.711,0-2.17c6.485,0,12.715,0,14.657,0
					c0.476,0,0.735,0,0.735,0v-2.942c0,0-0.259,0-0.735,0C102.818,231.264,87.305,231.264,78.989,231.264z"/>
			</g>
		</g>
		<g>
			<g>
				<polygon style="fill:#C48D5F;" points="94.11,282.614 86.378,282.614 86.378,290.342 87.747,292.991 94.929,292.991 
					95.002,285.18 				"/>
				<rect x="86.379" y="282.614" style="fill:#ECDAAB;" width="7.732" height="7.732"/>
				<polygon style="fill:#FCF5D6;" points="90.244,286.48 86.379,282.614 94.11,282.614 				"/>
			</g>
			<g>
				<polygon style="fill:#A67247;" points="459.542,282.614 451.81,282.614 451.81,290.342 453.179,292.991 460.361,292.991 
					460.434,285.18 				"/>
				<rect x="451.81" y="282.614" style="fill:#EEDDAA;" width="7.732" height="7.732"/>
				<polygon style="fill:#FCF5D6;" points="455.676,286.48 451.81,282.614 459.542,282.614 				"/>
			</g>
		</g>
	</g>
	<g>
		<rect x="123.015" y="145.882" style="fill:#EFDDAA;" width="303.971" height="181.402"/>
		<polygon style="fill:#D7AA81;" points="426.986,145.882 123.015,145.883 216.469,327.284 426.986,327.284 		"/>
		<polygon style="fill:#D7AA81;" points="125.479,150.667 123.015,145.883 123.015,150.667 		"/>
		<polygon style="fill:#C38B5F;" points="426.986,150.667 426.986,145.882 123.015,145.883 125.479,150.667 		"/>
	</g>
	<g>
		<rect x="118.112" y="337.09" style="fill:#666060;" width="313.777" height="54.911"/>
		<rect x="118.112" y="337.09" style="fill:#544F4F;" width="313.777" height="4.903"/>
		<rect x="113.209" y="327.284" style="fill:#9C9292;" width="323.582" height="9.806"/>
	</g>
	<g>
		<rect x="118.112" y="116.466" style="fill:#EFDDAA;" width="313.777" height="9.806"/>
		<polygon style="fill:#D7AA81;" points="431.888,116.466 118.112,116.466 123.015,126.272 431.888,126.272 		"/>
		<rect x="118.112" y="111.563" style="fill:#D7AA81;" width="313.777" height="9.806"/>
		<polygon style="fill:#C38B5F;" points="120.563,121.369 431.888,121.369 431.888,116.466 118.112,116.466 		"/>
		<rect x="357.498" y="111.563" style="fill:#C38B5F;" width="74.391" height="9.806"/>
		<rect x="113.209" y="126.272" style="fill:#9C9292;" width="323.582" height="9.806"/>
		<rect x="113.209" y="106.661" style="fill:#9C9292;" width="323.582" height="9.806"/>
		<rect x="118.112" y="136.077" style="fill:#666060;" width="313.777" height="9.806"/>
		<rect x="118.112" y="136.077" style="fill:#544F4F;" width="313.777" height="4.903"/>
	</g>
	<g>
		<path style="fill:#EFDDAA;" d="M275.349,242.957h0.405c-21.485,0-38.995,14.981-38.995,39.343v80.284h76.483V282.3
			C313.241,258.092,296.834,242.957,275.349,242.957z"/>
		<path style="fill:#9A5851;" d="M244.603,362.584v-79.98c0-16.8,13.389-30.468,30.397-30.468c17.008,0,30.397,13.668,30.397,30.468
			v79.98H244.603z"/>
		<rect x="251.467" y="331.206" style="fill:#894A44;" width="20.591" height="25.494"/>
		<rect x="277.942" y="331.206" style="fill:#894A44;" width="20.591" height="25.494"/>
		<path style="fill:#894A44;" d="M275,254.968c-20.101,0-27.455,14.885-27.455,28.854v78.761h54.911v-78.761
			C302.455,269.854,295.101,254.968,275,254.968z M274.019,361.603h-24.514v-75.502h24.514V361.603z M300.494,361.603h-24.514
			v-75.502h24.514V361.603z M249.506,284.14c0-13.728,7.681-27.482,25.494-27.482c17.813,0,25.494,13.754,25.494,27.482H249.506z"/>
		<g>
			<path style="fill:#4B7EB0;" d="M275,258.667c-12.965,0-23.512,10.765-23.512,23.512h47.024
				C298.512,269.431,287.965,258.667,275,258.667z"/>
			<rect x="251.467" y="288.062" style="fill:#4B7EB0;" width="20.591" height="38.242"/>
			<rect x="277.942" y="288.062" style="fill:#4B7EB0;" width="20.591" height="38.242"/>
		</g>
		<g>
			<path style="fill:#7BB6F0;" d="M292.159,269.012c-2.346-3.004-5.448-5.361-9.001-6.796l-18.714,18.714h15.784L292.159,269.012z"
				/>
			<path style="fill:#7BB6F0;" d="M296.703,280.929c-0.144-2.153-0.593-4.204-1.299-6.118l-6.118,6.118H296.703z"/>
			<polygon style="fill:#7BB6F0;" points="280.191,290.023 279.371,290.843 279.371,310.539 297.021,292.909 297.021,290.023 			"/>
			<polygon style="fill:#7BB6F0;" points="255.35,290.023 252.896,292.477 252.896,308.231 270.546,290.601 270.546,290.023 
				268.232,290.023 			"/>
			<polygon style="fill:#7BB6F0;" points="252.896,324.729 265.165,324.729 270.546,319.354 270.546,299.668 252.896,317.318 			"/>
		</g>
		<rect x="278.712" y="329.866" style="fill:#74352F;" width="8.662" height="2.475"/>
		<rect x="277.475" y="328.629" style="fill:#5C251E;" width="8.662" height="2.475"/>
		<rect x="265.1" y="329.866" style="fill:#74352F;" width="8.662" height="2.475"/>
		<rect x="263.863" y="328.629" style="fill:#5C251E;" width="8.662" height="2.475"/>
	</g>
	<g>
		<rect x="162.237" y="382.195" style="fill:#FFFFFF;" width="225.527" height="9.806"/>
		<rect x="172.042" y="372.389" style="fill:#CFC3C3;" width="205.916" height="9.806"/>
		<rect x="181.848" y="362.584" style="fill:#FFFFFF;" width="186.305" height="9.806"/>
	</g>
	<g>
		<g>
			<path style="fill:#C38B5F;" d="M303.436,220.404c0,0-3.856,0-9.56,0c-10.336,0-26.738,0-37.261,0c-5.972,0-10.051,0-10.051,0
				v4.903l4.903,9.805c0,0,1.958,0,5.148,0c8.334,0,25.075,0,37.261,0c8.284,0,14.463,0,14.463,0v-4.903L303.436,220.404z"/>
			<path style="fill:#C38B5F;" d="M303.436,165.897c0,0-3.856,0-9.56,0c-10.336,0-26.738,0-37.261,0c-5.972,0-10.051,0-10.051,0
				v4.903l3.922,9.805c0,0,2.939,0,6.128,0c8.334,0,25.075,0,37.261,0c8.284,0,14.463,0,14.463,0v-4.903L303.436,165.897z"/>
			<path style="fill:#EEDDAA;" d="M299.514,220.404c0,0-2.187,0-5.638,0c-9.275,0-27.675,0-37.261,0c-3.733,0-6.128,0-6.128,0
				s0-1.469,0-3.922c0-5.2,0-15.591,0-24.807c0-11.174,0-20.875,0-20.875s2.396,0,6.128,0c9.586,0,27.986,0,37.261,0
				c3.451,0,5.638,0,5.638,0s0,9.702,0,20.875c0,9.216,0,19.607,0,24.807C299.514,218.935,299.514,220.404,299.514,220.404z"/>
			<path style="fill:#D7AA81;" d="M299.514,230.209c0,0-2.187,0-5.638,0c-9.275,0-27.675,0-37.261,0c-3.733,0-6.128,0-6.128,0
				v-4.903c0,0,2.396,0,6.128,0c9.586,0,27.986,0,37.261,0c3.451,0,5.638,0,5.638,0V230.209z"/>
			<path style="fill:#D5A882;" d="M299.514,180.605c0,0-2.187,0-5.638,0c-9.275,0-27.675,0-37.261,0c-3.733,0-6.128,0-6.128,0
				v-1.961v-7.845c0,0,2.396,0,6.128,0c9.586,0,27.986,0,37.261,0c3.451,0,5.638,0,5.638,0V180.605z"/>
			<path style="fill:#FCF5D6;" d="M303.436,225.307c0,0-3.856,0-9.56,0c-10.336,0-26.738,0-37.261,0c-5.972,0-10.051,0-10.051,0
				v-4.903c0,0,4.078,0,10.051,0c10.523,0,26.925,0,37.261,0c5.704,0,9.56,0,9.56,0V225.307z"/>
			<path style="fill:#FCF5D6;" d="M303.436,170.799c0,0-3.856,0-9.56,0c-10.336,0-26.738,0-37.261,0c-5.972,0-10.051,0-10.051,0
				v-4.903c0,0,4.078,0,10.051,0c10.523,0,26.925,0,37.261,0c5.704,0,9.56,0,9.56,0V170.799z"/>
			<path style="fill:#4B7EB0;" d="M255.389,217.462c0,0,0.44,0,1.226,0c6.036,0,32.499,0,37.261,0c0.476,0,0.735,0,0.735,0
				s0-0.347,0-0.98c0-3.198,0-14.98,0-24.807c0-9.207,0-16.953,0-16.953s-0.259,0-0.735,0c-4.762,0-31.225,0-37.261,0
				c-0.786,0-1.226,0-1.226,0s0,7.746,0,16.953c0,9.827,0,21.609,0,24.807C255.389,217.116,255.389,217.462,255.389,217.462z"/>
			<path style="fill:#ECDAAB;" d="M294.611,189.504c0,0-0.259,0-0.735,0c-4.762,0-31.225,0-37.261,0c-0.786,0-1.226,0-1.226,0
				v-2.942c0,0,0.44,0,1.226,0c6.036,0,32.499,0,37.261,0c0.476,0,0.735,0,0.735,0V189.504z"/>
			<path style="fill:#ECDAAB;" d="M276.471,188.977c0,0,0,1.015,0,2.698c0,5.484,0,19.29,0,24.807c0,1.706,0,2.737,0,2.737h-2.942
				c0,0,0-1.031,0-2.737c0-5.517,0-19.323,0-24.807c0-1.683,0-2.698,0-2.698H276.471z"/>
			<path style="fill:#7BB6F0;" d="M269.345,215.991h-7.206l9.918-9.908v7.195L269.345,215.991z M293.14,185.092v-0.066l-0.066,0.066
				H293.14z M293.14,192.197v-1.222h-5.956l-9.242,9.232v7.188L293.14,192.197z M272.058,191.476v-0.501h-12.161l-3.038,3.038
				v12.645L272.058,191.476z M265.781,185.092h12.669l8.909-8.899H274.68L265.781,185.092z"/>
		</g>
		<g>
			<path style="fill:#D7AA81;" d="M183.809,220.404c0,0-3.856,0-9.56,0c-8.704,0-22.516,0-31.378,0c-5.972,0-10.051,0-10.051,0
				v4.903l4.903,9.805c0,0,1.958,0,5.148,0c7.018,0,21.116,0,31.378,0c8.284,0,14.463,0,14.463,0v-4.903L183.809,220.404z"/>
			<path style="fill:#C38B5F;" d="M183.809,165.897c0,0-3.856,0-9.56,0c-8.704,0-22.516,0-31.378,0c-5.972,0-10.051,0-10.051,0
				v4.903l3.922,9.805c0,0,2.939,0,6.128,0c7.018,0,21.116,0,31.378,0c8.284,0,14.463,0,14.463,0v-4.903L183.809,165.897z"/>
			<g>
				<path style="fill:#C38B5F;" d="M188.712,235.112v-4.903l-4.903-9.805c0,0-3.856,0-9.56,0c-3.633,0-8.16,0-12.842,0l7.577,14.708
					c1.823,0,3.597,0,5.264,0C182.533,235.112,188.712,235.112,188.712,235.112z"/>
				<path style="fill:#C38B5F;" d="M174.248,165.897c-8.704,0-22.516,0-31.378,0c-4.746,0-8.288,0-9.545,0l7.577,14.708
					c0.59,0,1.242,0,1.968,0c7.018,0,21.116,0,31.378,0c8.284,0,14.463,0,14.463,0v-4.903l-4.903-9.805
					C183.809,165.897,179.952,165.897,174.248,165.897z"/>
			</g>
			<path style="fill:#FBF5D6;" d="M179.886,220.404c0,0-2.187,0-5.638,0c-7.81,0-23.306,0-31.378,0c-3.733,0-6.128,0-6.128,0
				s0-1.469,0-3.922c0-5.2,0-15.591,0-24.807c0-11.174,0-20.875,0-20.875s2.396,0,6.128,0c8.072,0,23.567,0,31.378,0
				c3.451,0,5.638,0,5.638,0s0,9.702,0,20.875c0,9.216,0,19.607,0,24.807C179.886,218.935,179.886,220.404,179.886,220.404z"/>
			<path style="fill:#EEDDAA;" d="M142.871,170.799c-3.733,0-6.128,0-6.128,0s0,0.622,0,1.729l24.664,47.875
				c4.891,0,9.55,0,12.842,0c3.451,0,5.638,0,5.638,0s0-1.469,0-3.922c0-5.2,0-15.591,0-24.807c0-11.174,0-20.875,0-20.875
				s-2.187,0-5.638,0C166.438,170.799,150.943,170.799,142.871,170.799z"/>
			<path style="fill:#EFDDAA;" d="M179.886,230.209c0,0-2.187,0-5.638,0c-7.81,0-23.306,0-31.378,0c-3.733,0-6.128,0-6.128,0v-4.903
				c0,0,2.396,0,6.128,0c8.072,0,23.567,0,31.378,0c3.451,0,5.638,0,5.638,0V230.209z"/>
			<path style="fill:#D7AA81;" d="M163.932,225.307l2.526,4.903c2.96,0,5.664,0,7.79,0c3.451,0,5.638,0,5.638,0v-4.903
				c0,0-2.187,0-5.638,0C171.531,225.307,167.875,225.307,163.932,225.307z"/>
			<path style="fill:#D7AA81;" d="M179.886,180.605c0,0-2.187,0-5.638,0c-7.81,0-23.306,0-31.378,0c-3.733,0-6.128,0-6.128,0v-1.961
				v-7.845c0,0,2.396,0,6.128,0c8.072,0,23.567,0,31.378,0c3.451,0,5.638,0,5.638,0V180.605z"/>
			<path style="fill:#FFFFFF;" d="M183.809,225.307c0,0-3.856,0-9.56,0c-8.704,0-22.516,0-31.378,0c-5.972,0-10.051,0-10.051,0
				v-4.903c0,0,4.078,0,10.051,0c8.861,0,22.674,0,31.378,0c5.704,0,9.56,0,9.56,0V225.307z"/>
			<path style="fill:#FCF5D6;" d="M161.407,220.404l2.526,4.903c3.766,0,7.342,0,10.316,0c5.704,0,9.56,0,9.56,0v-4.903
				c0,0-3.856,0-9.56,0C170.615,220.404,166.089,220.404,161.407,220.404z"/>
			<path style="fill:#FFFFFF;" d="M183.809,170.799c0,0-3.856,0-9.56,0c-8.704,0-22.516,0-31.378,0c-5.972,0-10.051,0-10.051,0
				v-4.903c0,0,4.078,0,10.051,0c8.861,0,22.674,0,31.378,0c5.704,0,9.56,0,9.56,0V170.799z"/>
			<path style="fill:#FCF5D6;" d="M142.871,165.897c-4.746,0-8.288,0-9.545,0l2.526,4.903c1.751,0,4.165,0,7.019,0
				c8.861,0,22.674,0,31.378,0c5.704,0,9.56,0,9.56,0v-4.903c0,0-3.856,0-9.56,0C165.545,165.897,151.732,165.897,142.871,165.897z"
				/>
			<path style="fill:#4B7EB0;" d="M141.645,217.462c0,0,0.44,0,1.226,0c5.083,0,27.368,0,31.378,0c0.476,0,0.735,0,0.735,0
				s0-0.347,0-0.98c0-3.198,0-14.98,0-24.807c0-9.207,0-16.953,0-16.953s-0.259,0-0.735,0c-4.01,0-26.295,0-31.378,0
				c-0.786,0-1.226,0-1.226,0s0,7.746,0,16.953c0,9.827,0,21.609,0,24.807C141.645,217.116,141.645,217.462,141.645,217.462z"/>
			<path style="fill:#FAF4D5;" d="M174.248,186.563c-4.01,0-26.295,0-31.378,0c-0.786,0-1.226,0-1.226,0v2.942c0,0,0.44,0,1.226,0
				c2.308,0,8.164,0,14.244,0c0,0.46,0,1.199,0,2.171c0,5.484,0,19.29,0,24.807c0,1.706,0,2.737,0,2.737h2.477c0,0,0-1.031,0-2.737
				c0-5.517,0-19.323,0-24.807c0-0.971,0-1.711,0-2.171c6.485,0,12.715,0,14.657,0c0.476,0,0.735,0,0.735,0v-2.942
				C174.984,186.563,174.725,186.563,174.248,186.563z"/>
			<path style="fill:#EEDDAA;" d="M143.972,186.563l1.515,2.942c2.906,0,7.204,0,11.627,0c0,0.46,0,1.199,0,2.171
				c0,4.337,0,13.867,0,20.398l2.477,4.808c0-0.131,0-0.259,0-0.399c0-5.517,0-19.323,0-24.807c0-0.971,0-1.711,0-2.171
				c6.485,0,12.715,0,14.657,0c0.476,0,0.735,0,0.735,0v-2.942c0,0-0.259,0-0.735,0C170.48,186.563,150.576,186.563,143.972,186.563
				z"/>
		</g>
		<g>
			<path style="fill:#C38B5F;" d="M418.297,220.404c0,0-3.856,0-9.56,0c-8.704,0-22.516,0-31.378,0c-5.972,0-10.051,0-10.051,0
				v4.903l4.903,9.805c0,0,1.958,0,5.148,0c7.018,0,21.116,0,31.378,0c8.284,0,14.463,0,14.463,0v-4.903L418.297,220.404z"/>
			<path style="fill:#C38B5F;" d="M418.297,165.897c0,0-3.856,0-9.56,0c-8.704,0-22.516,0-31.378,0c-5.972,0-10.051,0-10.051,0
				v4.903l3.922,9.805c0,0,2.939,0,6.128,0c7.018,0,21.116,0,31.378,0c8.284,0,14.463,0,14.463,0v-4.903L418.297,165.897z"/>
			<path style="fill:#EEDDAA;" d="M414.375,220.404c0,0-2.187,0-5.638,0c-7.81,0-23.306,0-31.378,0c-3.733,0-6.128,0-6.128,0
				s0-1.469,0-3.922c0-5.2,0-15.591,0-24.807c0-11.174,0-20.875,0-20.875s2.396,0,6.128,0c8.072,0,23.567,0,31.378,0
				c3.451,0,5.638,0,5.638,0s0,9.702,0,20.875c0,9.216,0,19.607,0,24.807C414.375,218.935,414.375,220.404,414.375,220.404z"/>
			<path style="fill:#D5A882;" d="M414.375,230.209c0,0-2.187,0-5.638,0c-7.81,0-23.306,0-31.378,0c-3.733,0-6.128,0-6.128,0v-4.903
				c0,0,2.396,0,6.128,0c8.072,0,23.567,0,31.378,0c3.451,0,5.638,0,5.638,0V230.209z"/>
			<path style="fill:#D5A882;" d="M414.375,180.605c0,0-2.187,0-5.638,0c-7.81,0-23.306,0-31.378,0c-3.733,0-6.128,0-6.128,0v-1.961
				v-7.845c0,0,2.396,0,6.128,0c8.072,0,23.567,0,31.378,0c3.451,0,5.638,0,5.638,0V180.605z"/>
			<path style="fill:#FCF5D6;" d="M418.297,225.307c0,0-3.856,0-9.56,0c-8.704,0-22.516,0-31.378,0c-5.972,0-10.051,0-10.051,0
				v-4.903c0,0,4.078,0,10.051,0c8.861,0,22.674,0,31.378,0c5.704,0,9.56,0,9.56,0V225.307z"/>
			<path style="fill:#FCF5D6;" d="M418.297,170.799c0,0-3.856,0-9.56,0c-8.704,0-22.516,0-31.378,0c-5.972,0-10.051,0-10.051,0
				v-4.903c0,0,4.078,0,10.051,0c8.861,0,22.674,0,31.378,0c5.704,0,9.56,0,9.56,0V170.799z"/>
			<path style="fill:#4B7EB0;" d="M376.134,217.462c0,0,0.44,0,1.226,0c5.083,0,27.368,0,31.378,0c0.476,0,0.735,0,0.735,0
				s0-0.347,0-0.98c0-3.198,0-14.98,0-24.807c0-9.207,0-16.953,0-16.953s-0.259,0-0.735,0c-4.01,0-26.295,0-31.378,0
				c-0.786,0-1.226,0-1.226,0s0,7.746,0,16.953c0,9.827,0,21.609,0,24.807C376.134,217.116,376.134,217.462,376.134,217.462z"/>
			<path style="fill:#EEDDAA;" d="M409.472,189.504c0,0-0.259,0-0.735,0c-4.01,0-26.295,0-31.378,0c-0.786,0-1.226,0-1.226,0v-2.942
				c0,0,0.44,0,1.226,0c5.083,0,27.368,0,31.378,0c0.476,0,0.735,0,0.735,0V189.504z"/>
			<path style="fill:#EEDDAA;" d="M394.08,188.977c0,0,0,1.015,0,2.698c0,5.484,0,19.29,0,24.807c0,1.706,0,2.737,0,2.737h-2.477
				c0,0,0-1.031,0-2.737c0-5.517,0-19.323,0-24.807c0-1.683,0-2.698,0-2.698H394.08z"/>
		</g>
		<g>
			<path style="fill:#C38B5F;" d="M418.297,304.328c0,0-3.856,0-9.56,0c-8.704,0-22.516,0-31.378,0c-5.972,0-10.051,0-10.051,0
				v4.903l4.903,9.806c0,0,1.958,0,5.148,0c7.018,0,21.116,0,31.378,0c8.284,0,14.463,0,14.463,0v-4.903L418.297,304.328z"/>
			<path style="fill:#C38B5F;" d="M418.297,249.82c0,0-3.856,0-9.56,0c-8.704,0-22.516,0-31.378,0c-5.972,0-10.051,0-10.051,0v4.903
				l3.922,9.805c0,0,2.939,0,6.128,0c7.018,0,21.116,0,31.378,0c8.284,0,14.463,0,14.463,0v-4.903L418.297,249.82z"/>
			<path style="fill:#EEDDAA;" d="M414.375,304.328c0,0-2.187,0-5.638,0c-7.81,0-23.306,0-31.378,0c-3.733,0-6.128,0-6.128,0
				s0-1.469,0-3.922c0-5.2,0-15.591,0-24.807c0-11.174,0-20.875,0-20.875s2.396,0,6.128,0c8.072,0,23.567,0,31.378,0
				c3.451,0,5.638,0,5.638,0s0,9.702,0,20.875c0,9.216,0,19.607,0,24.807C414.375,302.858,414.375,304.328,414.375,304.328z"/>
			<path style="fill:#D7AA81;" d="M414.375,314.133c0,0-2.187,0-5.638,0c-7.81,0-23.306,0-31.378,0c-3.733,0-6.128,0-6.128,0v-4.903
				c0,0,2.396,0,6.128,0c8.072,0,23.567,0,31.378,0c3.451,0,5.638,0,5.638,0V314.133z"/>
			<path style="fill:#D7AA81;" d="M414.375,264.529c0,0-2.187,0-5.638,0c-7.81,0-23.306,0-31.378,0c-3.733,0-6.128,0-6.128,0v-1.961
				v-7.845c0,0,2.396,0,6.128,0c8.072,0,23.567,0,31.378,0c3.451,0,5.638,0,5.638,0V264.529z"/>
			<path style="fill:#FCF5D6;" d="M418.297,309.23c0,0-3.856,0-9.56,0c-8.704,0-22.516,0-31.378,0c-5.972,0-10.051,0-10.051,0
				v-4.903c0,0,4.078,0,10.051,0c8.861,0,22.674,0,31.378,0c5.704,0,9.56,0,9.56,0V309.23z"/>
			<path style="fill:#FCF5D6;" d="M418.297,254.723c0,0-3.856,0-9.56,0c-8.704,0-22.516,0-31.378,0c-5.972,0-10.051,0-10.051,0
				v-4.903c0,0,4.078,0,10.051,0c8.861,0,22.674,0,31.378,0c5.704,0,9.56,0,9.56,0V254.723z"/>
			<path style="fill:#4B7EB0;" d="M376.134,301.386c0,0,0.44,0,1.226,0c5.083,0,27.368,0,31.378,0c0.476,0,0.735,0,0.735,0
				s0-0.347,0-0.98c0-3.198,0-14.98,0-24.807c0-9.207,0-16.953,0-16.953s-0.259,0-0.735,0c-4.01,0-26.295,0-31.378,0
				c-0.786,0-1.226,0-1.226,0s0,7.746,0,16.953c0,9.827,0,21.609,0,24.807C376.134,301.039,376.134,301.386,376.134,301.386z"/>
			<path style="fill:#EEDDAA;" d="M409.472,273.428c0,0-0.259,0-0.735,0c-4.01,0-26.295,0-31.378,0c-0.786,0-1.226,0-1.226,0v-2.942
				c0,0,0.44,0,1.226,0c5.083,0,27.368,0,31.378,0c0.476,0,0.735,0,0.735,0V273.428z"/>
			<path style="fill:#EEDDAA;" d="M394.08,272.9c0,0,0,1.015,0,2.698c0,5.484,0,19.29,0,24.807c0,1.706,0,2.737,0,2.737h-2.477
				c0,0,0-1.031,0-2.737c0-5.517,0-19.323,0-24.807c0-1.683,0-2.698,0-2.698H394.08z"/>
		</g>
		<g>
			<path style="fill:#D7AA81;" d="M183.809,304.328c0,0-3.856,0-9.56,0c-8.704,0-22.516,0-31.378,0c-5.972,0-10.051,0-10.051,0
				v4.903l4.903,9.806c0,0,1.958,0,5.148,0c7.018,0,21.116,0,31.378,0c8.284,0,14.463,0,14.463,0v-4.903L183.809,304.328z"/>
			<path style="fill:#C38B5F;" d="M183.809,249.82c0,0-3.856,0-9.56,0c-8.704,0-22.516,0-31.378,0c-5.972,0-10.051,0-10.051,0v4.903
				l3.922,9.805c0,0,2.939,0,6.128,0c7.018,0,21.116,0,31.378,0c8.284,0,14.463,0,14.463,0v-4.903L183.809,249.82z"/>
			<path style="fill:#C38B5F;" d="M176.561,249.82l7.577,14.708c2.841,0,4.573,0,4.573,0v-4.903l-4.903-9.806
				C183.809,249.82,180.967,249.82,176.561,249.82z"/>
			<path style="fill:#FAF4D5;" d="M179.886,304.328c0,0-2.187,0-5.638,0c-7.81,0-23.306,0-31.378,0c-3.733,0-6.128,0-6.128,0
				s0-1.469,0-3.922c0-5.2,0-15.591,0-24.807c0-11.174,0-20.875,0-20.875s2.396,0,6.128,0c8.072,0,23.567,0,31.378,0
				c3.451,0,5.638,0,5.638,0s0,9.702,0,20.875c0,9.216,0,19.607,0,24.807C179.886,302.858,179.886,304.328,179.886,304.328z"/>
			<path style="fill:#EEDDAA;" d="M179.886,314.133c0,0-2.187,0-5.638,0c-7.81,0-23.306,0-31.378,0c-3.733,0-6.128,0-6.128,0v-4.903
				c0,0,2.396,0,6.128,0c8.072,0,23.567,0,31.378,0c3.451,0,5.638,0,5.638,0V314.133z"/>
			<path style="fill:#D7AA81;" d="M179.886,264.529c0,0-2.187,0-5.638,0c-7.81,0-23.306,0-31.378,0c-3.733,0-6.128,0-6.128,0v-1.961
				v-7.845c0,0,2.396,0,6.128,0c8.072,0,23.567,0,31.378,0c3.451,0,5.638,0,5.638,0V264.529z"/>
			<path style="fill:#FFFFFF;" d="M183.809,309.23c0,0-3.856,0-9.56,0c-8.704,0-22.516,0-31.378,0c-5.972,0-10.051,0-10.051,0
				v-4.903c0,0,4.078,0,10.051,0c8.861,0,22.674,0,31.378,0c5.704,0,9.56,0,9.56,0V309.23z"/>
			<path style="fill:#FFFFFF;" d="M183.809,254.723c0,0-3.856,0-9.56,0c-8.704,0-22.516,0-31.378,0c-5.972,0-10.051,0-10.051,0
				v-4.903c0,0,4.078,0,10.051,0c8.861,0,22.674,0,31.378,0c5.704,0,9.56,0,9.56,0V254.723z"/>
			<path style="fill:#FCF5D6;" d="M179.087,254.723c2.935,0,4.721,0,4.721,0v-4.903c0,0-2.841,0-7.247,0L179.087,254.723z"/>
			<path style="fill:#4B7EB0;" d="M141.645,301.386c0,0,0.44,0,1.226,0c5.083,0,27.368,0,31.378,0c0.476,0,0.735,0,0.735,0
				s0-0.347,0-0.98c0-3.198,0-14.98,0-24.807c0-9.207,0-16.953,0-16.953s-0.259,0-0.735,0c-4.01,0-26.295,0-31.378,0
				c-0.786,0-1.226,0-1.226,0s0,7.746,0,16.953c0,9.827,0,21.609,0,24.807C141.645,301.039,141.645,301.386,141.645,301.386z"/>
			<path style="fill:#F9F3D4;" d="M174.984,273.428c0,0-0.259,0-0.735,0c-4.01,0-26.295,0-31.378,0c-0.786,0-1.226,0-1.226,0v-2.942
				c0,0,0.44,0,1.226,0c5.083,0,27.368,0,31.378,0c0.476,0,0.735,0,0.735,0V273.428z"/>
			<path style="fill:#F9F3D4;" d="M159.592,272.9c0,0,0,1.015,0,2.698c0,5.484,0,19.29,0,24.807c0,1.706,0,2.737,0,2.737h-2.477
				c0,0,0-1.031,0-2.737c0-5.517,0-19.323,0-24.807c0-1.683,0-2.698,0-2.698H159.592z"/>
		</g>
		<g>
			<path style="fill:#7BB6F0;" d="M161.631,269.016h-12.638l8.9-8.9h12.638L161.631,269.016z M161.063,291.411l12.45-12.45v-4.062
				h-3.149l-9.302,9.302V291.411z M155.644,296.83v-7.211l-10.295,10.295h7.211L155.644,296.83z M155.644,275.003v-0.104h-12.528
				v12.632L155.644,275.003z"/>
			<path style="fill:#7BB6F0;" d="M161.631,185.276h-12.638l8.9-8.9h12.638L161.631,185.276z M161.063,207.672l12.45-12.45v-4.062
				h-3.149l-9.302,9.302V207.672z M155.644,213.091v-7.211l-10.295,10.295h7.211L155.644,213.091z M155.644,191.264v-0.104h-12.528
				v12.632L155.644,191.264z"/>
			<path style="fill:#7BB6F0;" d="M396.12,269.016h-12.638l8.9-8.9h12.638L396.12,269.016z M395.551,291.411l12.45-12.45v-4.062
				h-3.149l-9.302,9.302V291.411z M390.132,296.83v-7.211l-10.295,10.295h7.211L390.132,296.83z M390.132,275.003v-0.104h-12.528
				v12.632L390.132,275.003z"/>
			<path style="fill:#7BB6F0;" d="M396.12,185.276h-12.638l8.9-8.9h12.638L396.12,185.276z M395.551,207.672l12.45-12.45v-4.062
				h-3.149l-9.302,9.302V207.672z M390.132,213.091v-7.211l-10.295,10.295h7.211L390.132,213.091z M390.132,191.264v-0.104h-12.528
				v12.632L390.132,191.264z"/>
			<path style="fill:#7BB6F0;" d="M93.523,230.003H80.885l8.9-8.9h12.638L93.523,230.003z M92.954,252.398l12.45-12.45v-4.062
				h-3.149l-9.302,9.302V252.398z M87.535,257.817v-7.211L77.24,260.902h7.211L87.535,257.817z M87.535,235.99v-0.104H75.007v12.632
				L87.535,235.99z"/>
			<path style="fill:#7BB6F0;" d="M93.523,316.347H80.885l8.9-8.9h12.638L93.523,316.347z M92.954,338.742l12.45-12.45v-4.062
				h-3.149l-9.302,9.301V338.742z M87.535,344.161v-7.211L77.24,347.246h7.211L87.535,344.161z M87.535,322.334v-0.104H75.007
				v12.632L87.535,322.334z"/>
			<path style="fill:#5085BA;" d="M459.137,230.003h-12.638l8.9-8.9h12.638L459.137,230.003z M458.568,252.398l12.45-12.45v-4.062
				h-3.149l-9.302,9.302V252.398z M453.149,257.817v-7.211l-10.295,10.295h7.211L453.149,257.817z M453.149,235.99v-0.104h-12.528
				v12.632L453.149,235.99z"/>
			<path style="fill:#5085BA;" d="M459.137,316.347h-12.638l8.9-8.9h12.638L459.137,316.347z M458.568,338.742l12.45-12.45v-4.062
				h-3.149l-9.302,9.301V338.742z M453.149,344.161v-7.211l-10.295,10.295h7.211L453.149,344.161z M453.149,322.334v-0.104h-12.528
				v12.632L453.149,322.334z"/>
		</g>
	</g>
	<g>
		<polygon style="fill:#C38B5F;" points="321.721,145.882 321.681,160.59 324.152,168.435 324.152,317.478 330.036,317.478 
			335.919,317.478 341.802,317.478 347.686,317.478 353.569,317.478 353.569,168.435 356.001,160.59 356.001,145.882 		"/>
		<g>
			<rect x="313.241" y="337.09" style="fill:#CFC3C3;" width="49.028" height="25.494"/>
			<rect x="313.241" y="337.09" style="fill:#9C9292;" width="49.028" height="4.903"/>
			<rect x="313.241" y="327.284" style="fill:#64686B;" width="49.028" height="9.806"/>
			<path style="fill:#FBF5D6;" d="M362.269,327.284h-49.028l0,0c0-5.415,4.39-9.806,9.806-9.806h29.417
				C357.879,317.478,362.269,321.869,362.269,327.284L362.269,327.284z"/>
			<rect x="323.047" y="168.435" style="fill:#FFFFFF;" width="29.417" height="149.044"/>
			<rect x="328.93" y="168.435" style="fill:#CFC3C3;" width="5.883" height="149.044"/>
			<rect x="340.697" y="168.435" style="fill:#CFC3C3;" width="5.883" height="149.044"/>
			<polygon style="fill:#FBF5D6;" points="354.895,145.882 320.615,145.882 320.576,160.59 323.047,168.435 352.464,168.435 
				354.895,160.59 			"/>
			<polygon style="fill:#666060;" points="354.901,150.785 354.901,145.883 320.61,145.883 320.582,150.785 			"/>
			<g>
				<path style="fill:#9C9292;" d="M362.269,153.236c0,4.062-3.293,7.354-7.354,7.354c-4.062,0-7.354-3.292-7.354-7.354
					s3.293-7.354,7.354-7.354C358.977,145.882,362.269,149.174,362.269,153.236z"/>
				<path style="fill:#FFFFFF;" d="M358.347,153.236c0,1.895-1.536,3.432-3.432,3.432c-1.895,0-3.432-1.536-3.432-3.432
					s1.537-3.432,3.432-3.432C356.81,149.804,358.347,151.341,358.347,153.236z"/>
			</g>
			<g>
				<circle style="fill:#9C9292;" cx="320.596" cy="153.236" r="7.354"/>
				<path style="fill:#FFFFFF;" d="M324.028,153.236c0,1.895-1.536,3.432-3.432,3.432c-1.896,0-3.432-1.536-3.432-3.432
					s1.536-3.432,3.432-3.432C322.491,149.804,324.028,151.341,324.028,153.236z"/>
			</g>
			<path style="fill:#9C9292;" d="M335.64,345.839v2.906c0,1.364-1.106,2.469-2.469,2.469h-14.672c-1.364,0-2.469-1.105-2.469-2.469
				v-2.906c0-1.364,1.105-2.469,2.469-2.469h14.672C334.534,343.37,335.64,344.475,335.64,345.839z M357.528,342.883h-14.673
				c-1.364,0-2.469,1.105-2.469,2.469v2.906c0,1.364,1.105,2.469,2.469,2.469h14.673c1.364,0,2.469-1.105,2.469-2.469v-2.906
				C359.997,343.988,358.891,342.883,357.528,342.883z M321.715,353.665h-2.906c-1.364,0-2.469,1.106-2.469,2.469v2.906
				c0,1.364,1.105,2.469,2.469,2.469h2.906c1.364,0,2.469-1.106,2.469-2.469v-2.906
				C324.184,354.771,323.079,353.665,321.715,353.665z M346.072,353.665H331.4c-1.364,0-2.469,1.106-2.469,2.469v2.906
				c0,1.364,1.106,2.469,2.469,2.469h14.672c1.364,0,2.469-1.106,2.469-2.469v-2.906
				C348.541,354.771,347.436,353.665,346.072,353.665z M357.682,353.665h-1.925c-1.364,0-2.469,1.106-2.469,2.469v2.906
				c0,1.364,1.105,2.469,2.469,2.469h1.925c1.364,0,2.469-1.106,2.469-2.469v-2.906
				C360.151,354.771,359.046,353.665,357.682,353.665z"/>
		</g>
		<polygon style="fill:#C38B5F;" points="196.105,145.882 196.065,160.59 198.536,168.435 198.536,317.478 204.42,317.478 
			210.303,317.478 216.186,317.478 222.07,317.478 227.953,317.478 227.953,168.435 230.385,160.59 230.385,145.882 		"/>
		<g>
			<rect x="187.731" y="337.09" style="fill:#CFC3C3;" width="49.028" height="25.494"/>
			<rect x="187.731" y="337.09" style="fill:#9C9292;" width="49.028" height="4.903"/>
			<rect x="187.731" y="327.284" style="fill:#64686B;" width="49.028" height="9.806"/>
			<path style="fill:#FBF5D6;" d="M226.953,317.478h-29.417c-5.415,0-9.805,4.39-9.805,9.806h49.028
				C236.758,321.868,232.368,317.478,226.953,317.478z"/>
			<rect x="197.536" y="168.435" style="fill:#FFFFFF;" width="29.417" height="149.044"/>
			<rect x="203.42" y="168.435" style="fill:#CFC3C3;" width="5.883" height="149.044"/>
			<rect x="215.186" y="168.435" style="fill:#CFC3C3;" width="5.883" height="149.044"/>
			<polygon style="fill:#FBF5D6;" points="229.385,145.882 195.105,145.882 195.065,160.59 197.536,168.435 226.953,168.435 
				229.385,160.59 			"/>
			<polygon style="fill:#666060;" points="229.39,150.785 229.39,145.883 195.099,145.883 195.071,150.785 			"/>
			<g>
				<circle style="fill:#9C9292;" cx="229.404" cy="153.236" r="7.354"/>
				<path style="fill:#FFFFFF;" d="M232.836,153.236c0,1.895-1.536,3.432-3.432,3.432c-1.895,0-3.432-1.536-3.432-3.432
					s1.536-3.432,3.432-3.432C231.3,149.804,232.836,151.341,232.836,153.236z"/>
			</g>
			<g>
				<circle style="fill:#9C9292;" cx="195.085" cy="153.236" r="7.354"/>
				<path style="fill:#FFFFFF;" d="M198.517,153.236c0,1.895-1.537,3.432-3.432,3.432c-1.895,0-3.432-1.536-3.432-3.432
					s1.536-3.432,3.432-3.432C196.98,149.804,198.517,151.341,198.517,153.236z"/>
			</g>
			<path style="fill:#9C9292;" d="M195.224,343.126h-2.906c-1.364,0-2.469,1.106-2.469,2.469v2.906c0,1.364,1.105,2.469,2.469,2.469
				h2.906c1.364,0,2.469-1.106,2.469-2.469v-2.906C197.693,344.232,196.588,343.126,195.224,343.126z M219.581,343.126h-14.673
				c-1.364,0-2.469,1.106-2.469,2.469v2.906c0,1.364,1.105,2.469,2.469,2.469h14.673c1.364,0,2.469-1.106,2.469-2.469v-2.906
				C222.05,344.232,220.945,343.126,219.581,343.126z M231.191,343.126h-1.925c-1.364,0-2.469,1.106-2.469,2.469v2.906
				c0,1.364,1.106,2.469,2.469,2.469h1.925c1.364,0,2.469-1.106,2.469-2.469v-2.906C233.66,344.232,232.554,343.126,231.191,343.126
				z M206.68,353.422h-14.673c-1.364,0-2.469,1.105-2.469,2.469v2.906c0,1.364,1.105,2.469,2.469,2.469h14.673
				c1.364,0,2.469-1.105,2.469-2.469v-2.906C209.149,354.527,208.043,353.422,206.68,353.422z M231.036,353.422h-14.673
				c-1.364,0-2.469,1.105-2.469,2.469v2.906c0,1.364,1.106,2.469,2.469,2.469h14.673c1.364,0,2.469-1.105,2.469-2.469v-2.906
				C233.506,354.527,232.4,353.422,231.036,353.422z"/>
		</g>
	</g>
	<g>
		<rect x="189.202" y="136.077" style="fill:#D7AA81;" width="171.597" height="9.806"/>
		<rect x="189.202" y="136.077" style="fill:#A67247;" width="171.597" height="4.903"/>
		<rect x="181.848" y="121.369" style="fill:#FCF5D6;" width="186.305" height="14.708"/>
	</g>
	<g>
		<polygon style="fill:#9C9292;" points="275,67.274 181.848,121.369 368.152,121.369 		"/>
		<polygon style="fill:#A67247;" points="197.513,121.368 351.506,121.368 275.017,75.543 		"/>
		<polygon style="fill:#D7AA81;" points="208.879,121.368 340.14,121.368 275.193,83.935 		"/>
		<polygon style="fill:#CFC3C3;" points="275,50.041 169.989,111.28 177.63,123.833 275,67.274 372.37,123.833 380.011,111.28 		"/>
		<polygon style="fill:#666060;" points="275,62.738 178.982,118.511 175.417,112.654 275,54.582 374.582,112.654 371.017,118.511 
					"/>
		<polygon style="fill:#9C9292;" points="275,58.504 372.821,115.549 374.582,112.654 275,54.582 175.417,112.654 177.179,115.549 
					"/>
		<polygon style="fill:#9C9292;" points="181.848,121.369 177.63,123.833 181.848,123.833 		"/>
		<polygon style="fill:#9C9292;" points="368.152,121.369 372.37,123.833 368.152,123.833 		"/>
	</g>
	<g>
		<g>
			<polygon style="fill:#D8AA81;" points="162.684,237.516 154.951,237.516 154.951,245.244 156.32,247.893 163.502,247.893 
				163.575,240.082 			"/>
			<rect x="154.952" y="237.516" style="fill:#FBF5D6;" width="7.732" height="7.732"/>
			<polygon style="fill:#FFFFFF;" points="158.818,241.382 154.952,237.516 162.684,237.516 			"/>
		</g>
		<g>
			<polygon style="fill:#C38B5F;" points="397.035,237.516 389.303,237.516 389.303,245.244 390.672,247.893 397.854,247.893 
				397.927,240.082 			"/>
			<rect x="389.304" y="237.516" style="fill:#EEDDAA;" width="7.732" height="7.732"/>
			<polygon style="fill:#FFFFFF;" points="393.17,241.382 389.304,237.516 397.035,237.516 			"/>
		</g>
	</g>
	<g>
		<path style="fill:#9C9292;" d="M311.24,108.197h-72.48c-4.313,0-7.809,3.496-7.809,7.809v14.989c0,4.313,3.496,7.809,7.809,7.809
			h72.48c4.313,0,7.809-3.496,7.809-7.809v-14.989C319.049,111.693,315.553,108.197,311.24,108.197z"/>
		<path style="fill:#FFFFFF;" d="M310.427,109.667h-70.855c-3.904,0-7.068,3.164-7.068,7.068v13.532
			c0,3.904,3.165,7.068,7.068,7.068h70.855c3.904,0,7.068-3.164,7.068-7.068v-13.532
			C317.495,112.831,314.331,109.667,310.427,109.667z"/>
		<path style="fill:#C28B5F;" d="M237.238,126.101l-2.422-2.422l2.422-2.422l2.422,2.422L237.238,126.101z M312.762,126.101
			l-2.422-2.422l2.422-2.422l2.422,2.422L312.762,126.101z"/>
		<g>
			<path style="fill:#C28B5F;" d="M241.859,128.179h1.19v-9.024h-1.19v-2.647h7.651c3.405,0,5.026,1.273,5.026,3.507
				c0,1.724-0.472,2.565-2.01,3.18c0.626-0.25,1.923,1.105,2.193,1.54c0.857,1.38,0.713,3.617-0.441,4.807
				c-1.15,1.186-3.078,1.304-4.624,1.304c-0.001,0-7.795,0-7.795,0V128.179z M247.295,122.293h1.251c1.844,0,1.88-3.076,0.042-3.076
				h-1.293V122.293z M248.936,128.179c2.199,0,2.184-3.567-0.062-3.567h-1.579v3.567
				C247.295,128.179,248.933,128.179,248.936,128.179z"/>
			<path style="fill:#C28B5F;" d="M264.746,130.846v-2.687h1.948l-0.43-1.395h-4.206l-0.431,1.395h1.6v2.687h-6.523v-2.687h1.395
				l2.769-9.004h-0.841v-2.647h7.877l3.63,11.651h1.436v2.687H264.746z M265.505,124.302l-1.354-4.429l-1.334,4.429H265.505z"/>
			<path style="fill:#C28B5F;" d="M289.111,119.155v11.691h-4.41l-5.231-7.815v5.169h1.58v2.646h-6.297v-2.646h1.21v-9.046h-1.189
				v-2.647h5.887l5.026,7.529v-4.882h-1.395v-2.647h6.174v2.647H289.111z"/>
			<path style="fill:#C28B5F;" d="M297.803,119.155v3.344l3.815-3.344h-1.477v-2.647h6.83v2.647h-1.189l-2.975,2.564l4.144,6.46
				h1.189v2.667h-7.999v-2.667h1.395l-2.216-3.486l-1.517,1.291v2.195h1.107v2.667h-6.461v-2.667h1.107v-9.024h-1.107v-2.647h6.461
				v2.647H297.803z"/>
		</g>
	</g>
	<g>
		
			<ellipse transform="matrix(0.9133 -0.4073 0.4073 0.9133 -14.6047 120.186)" style="fill:#9C9292;" cx="275" cy="94.398" rx="11.81" ry="11.81"/>
		
			<ellipse transform="matrix(0.9131 -0.4078 0.4078 0.9131 -14.5521 120.331)" style="fill:#FFFFFF;" cx="275" cy="94.302" rx="9.92" ry="9.92"/>
		<path style="fill:#C28B5F;" d="M279.56,97.035c0-2.534-1.911-3.473-3.446-4.228c-0.718-0.354-1.489-0.75-1.756-1.012
			c-0.061-0.06-0.074-0.072-0.074-0.343c0-0.727,0.407-0.788,0.789-0.788c0.264,0,0.662,0,0.909,0.907
			c0.136,0.499,0.619,0.822,1.132,0.757l1.35-0.171c0.616-0.078,1.026-0.676,0.878-1.279c-0.405-1.646-1.421-2.749-2.863-3.172
			v-0.738c0-0.442-0.358-0.8-0.8-0.8h-1.36c-0.442,0-0.8,0.358-0.8,0.8v0.798c-1.614,0.551-2.706,1.952-2.706,3.686
			c0,2.363,1.651,3.156,3.251,3.925l0.137,0.065c1.508,0.716,1.888,0.99,1.888,1.693c0,0.516-0.123,0.993-1.018,0.993
			c-0.805,0-0.995-0.115-1.175-1.333l0,0c-0.082-0.553-0.586-0.942-1.142-0.88l-1.391,0.154c-0.572,0.063-0.983,0.579-0.918,1.15
			l0,0c0.242,2.113,1.297,3.431,3.073,3.883v0.722c0,0.442,0.358,0.8,0.8,0.8h1.36c0.442,0,0.8-0.358,0.8-0.8v-0.725
			C278.368,100.599,279.56,99.09,279.56,97.035z"/>
	</g>
</g>
<g id="Green">
	<g>
		<path style="fill:#8EE778;" d="M157.011,363.211c0-13.06-9.85-17.9-17.76-21.786c-3.702-1.823-7.672-3.867-9.049-5.213
			c-0.316-0.308-0.381-0.372-0.381-1.767c0-3.745,2.099-4.059,4.067-4.059c1.359,0,3.411,0,4.686,4.673
			c0.702,2.573,3.191,4.236,5.836,3.901l6.957-0.881c3.175-0.402,5.29-3.482,4.525-6.59c-2.088-8.483-7.325-14.168-14.755-16.348
			v-3.805c0-2.276-1.845-4.121-4.121-4.121h-7.008c-2.276,0-4.121,1.845-4.121,4.121v4.114c-8.316,2.84-13.947,10.059-13.947,18.993
			c0,12.178,8.51,16.266,16.756,20.226l0.708,0.337c7.774,3.692,9.73,5.103,9.73,8.726c0,2.658-0.636,5.119-5.248,5.119
			c-4.149,0-5.127-0.592-6.055-6.869l0-0.001c-0.422-2.849-3.022-4.854-5.885-4.537l-7.17,0.795
			c-2.946,0.327-5.065,2.984-4.728,5.929v0c1.247,10.891,6.684,17.682,15.838,20.012v3.719c0,2.276,1.845,4.121,4.121,4.121h7.008
			c2.276,0,4.121-1.845,4.121-4.121v-3.737C150.871,381.577,157.011,373.802,157.011,363.211z"/>
		<path style="fill:#12CB1B;" d="M156.958,361.666c-0.007,0.113,0.004,0.235,0.025,0.362c0.018,0.387,0.028,0.781,0.028,1.183
			c0,10.591-6.14,18.367-15.873,20.953v3.737c0,2.276-1.845,4.121-4.121,4.121h-7.007c-2.276,0-4.121-1.845-4.121-4.121v-3.719
			c-9.154-2.33-14.591-9.122-15.838-20.012v0c-0.081-0.704-0.017-1.391,0.161-2.034c1.301,8.883,5.528,14.882,12.42,17.767
			c0.7,0.293,10.883,5.275,21.57,0.032c7.26-3.562,12.22-9.651,12.757-18.27C156.958,361.664,156.958,361.665,156.958,361.666z
			 M137.467,368.002c0,0.001,0,0.002,0,0.004c0.02-0.011,0.036-0.027,0.055-0.038C137.504,367.979,137.484,367.99,137.467,368.002z
			 M128.697,354.671l0.708,0.337c7.774,3.692,9.73,5.103,9.73,8.726c0,1.649-0.247,3.222-1.534,4.178
			c2.294-1.493,2.17-5.833,2.17-6.716c0-3.622-2.591-5.693-10.365-9.385l-0.708-0.337c-7.86-3.774-15.954-7.671-16.695-18.574
			c-0.038,0.509-0.061,1.024-0.061,1.545c0,0.389,0.017,0.752,0.025,1.127C112.477,346.88,120.711,350.836,128.697,354.671z
			 M129.821,334.445c0-3.745,2.099-4.059,4.067-4.059c1.359,0,3.411,0,4.686,4.673c0.702,2.573,3.19,4.236,5.836,3.901l6.957-0.881
			c3.175-0.402,5.29-3.482,4.525-6.59c-0.354-1.439-0.806-2.79-1.337-4.064c1.351,6.404-1.158,7.199-3.189,7.456l-7.586,0.974
			c-1.985,0.356-4.176-1.157-4.707-3.102c-1.534-5.621-3.735-5.566-5.186-5.566c-1.967,0-5.245,0.599-5.245,4.345
			c0,0.617,0.003,3.156,1.442,4.56C129.871,335.859,129.821,335.646,129.821,334.445z M130.131,336.14
			c-0.001-0.001-0.003-0.003-0.004-0.004C130.128,336.137,130.13,336.139,130.131,336.14L130.131,336.14z"/>
		<g>
			<path style="fill:#12CB1B;" d="M126.302,364.434c-0.52-1.495-1.585-2.587-2.737-2.97c-0.665,1.015-0.823,2.532-0.303,4.027
				c0.52,1.495,1.585,2.587,2.737,2.97C126.665,367.446,126.823,365.929,126.302,364.434z"/>
			<path style="fill:#12CB1B;" d="M116.383,364.144c-0.476-1.51-1.509-2.632-2.649-3.048c-0.694,0.995-0.896,2.507-0.42,4.017
				c0.476,1.51,1.509,2.632,2.649,3.048C116.658,367.166,116.859,365.654,116.383,364.144z"/>
			<path style="fill:#12CB1B;" d="M127.009,376.079c-1.379-0.777-2.901-0.89-4.017-0.415c0.173,1.201,1.059,2.443,2.438,3.219
				c1.38,0.777,2.901,0.89,4.017,0.415C129.274,378.097,128.388,376.855,127.009,376.079z"/>
			<path style="fill:#12CB1B;" d="M136.538,369.372c-1.51,0.477-2.632,1.51-3.048,2.65c0.995,0.694,2.507,0.896,4.017,0.419
				c1.51-0.477,2.632-1.51,3.048-2.65C139.559,369.096,138.047,368.895,136.538,369.372z"/>
			<path style="fill:#12CB1B;" d="M143.944,374.386c-1.419,0.702-2.37,1.894-2.607,3.084c1.089,0.534,2.614,0.502,4.034-0.2
				c1.419-0.702,2.37-1.894,2.607-3.084C146.888,373.653,145.363,373.684,143.944,374.386z"/>
			<path style="fill:#12CB1B;" d="M150.549,362.961c-0.089,1.581,0.48,2.996,1.399,3.788c1.001-0.685,1.725-2.028,1.814-3.608
				c0.089-1.581-0.48-2.996-1.399-3.788C151.361,360.037,150.638,361.38,150.549,362.961z"/>
			<path style="fill:#12CB1B;" d="M141.728,358.193c0.345,1.545,1.278,2.752,2.378,3.264c0.777-0.932,1.108-2.421,0.762-3.966
				c-0.345-1.545-1.278-2.752-2.378-3.264C141.714,355.159,141.383,356.648,141.728,358.193z"/>
			<path style="fill:#12CB1B;" d="M140.255,347.797c1.366,0.8,2.885,0.939,4.01,0.483c-0.153-1.203-1.018-2.46-2.384-3.26
				s-2.885-0.939-4.01-0.483C138.023,345.741,138.888,346.998,140.255,347.797z"/>
			<path style="fill:#12CB1B;" d="M127.283,348.512c1.366,0.8,2.885,0.939,4.009,0.483c-0.153-1.204-1.018-2.46-2.384-3.26
				c-1.366-0.8-2.885-0.939-4.009-0.483C125.052,346.455,125.917,347.712,127.283,348.512z"/>
			<path style="fill:#12CB1B;" d="M124.121,335.8c0.741,1.399,1.959,2.317,3.155,2.521c0.504-1.104,0.43-2.627-0.311-4.027
				c-0.741-1.399-1.959-2.317-3.155-2.521C123.306,332.877,123.38,334.401,124.121,335.8z"/>
			<path style="fill:#12CB1B;" d="M115.39,326.73c-0.723,1.408-0.778,2.933-0.261,4.03c1.193-0.219,2.4-1.152,3.123-2.56
				c0.723-1.408,0.778-2.933,0.261-4.03C117.32,324.389,116.114,325.322,115.39,326.73z"/>
			<path style="fill:#12CB1B;" d="M131.998,322.583c-1.562,0.26-2.818,1.126-3.389,2.196c0.888,0.827,2.357,1.238,3.918,0.978
				c1.562-0.26,2.818-1.126,3.389-2.196C135.029,322.734,133.56,322.322,131.998,322.583z"/>
			<path style="fill:#12CB1B;" d="M140.848,315.977c-1.502-0.499-3.017-0.321-4.023,0.359c0.399,1.146,1.505,2.196,3.008,2.695
				c1.502,0.499,3.017,0.321,4.023-0.358C143.457,317.526,142.35,316.476,140.848,315.977z"/>
			<path style="fill:#12CB1B;" d="M132.967,308.62c-1.581,0.089-2.923,0.814-3.607,1.815c0.793,0.918,2.208,1.487,3.789,1.397
				c1.581-0.089,2.923-0.814,3.607-1.815C135.963,309.099,134.548,308.531,132.967,308.62z"/>
			<path style="fill:#12CB1B;" d="M150.333,324.181c-0.912-1.294-2.237-2.05-3.449-2.1c-0.359,1.159-0.093,2.661,0.82,3.954
				c0.912,1.294,2.237,2.05,3.45,2.1C151.512,326.977,151.245,325.475,150.333,324.181z"/>
			<path style="fill:#12CB1B;" d="M124.974,316.952c-1.411,0.717-2.349,1.92-2.573,3.113c1.095,0.522,2.62,0.473,4.031-0.244
				c1.411-0.717,2.349-1.92,2.573-3.113C127.91,316.186,126.385,316.234,124.974,316.952z"/>
			<path style="fill:#12CB1B;" d="M143.802,329.686c-0.675-1.432-1.85-2.405-3.035-2.665c-0.554,1.079-0.551,2.605,0.124,4.037
				c0.675,1.432,1.85,2.405,3.035,2.664C144.481,332.643,144.477,331.118,143.802,329.686z"/>
		</g>
	</g>
	<g>
		<path style="fill:#8EE778;" d="M439.986,363.211c0-13.06-9.85-17.9-17.76-21.786c-3.702-1.823-7.672-3.867-9.049-5.213
			c-0.316-0.308-0.381-0.372-0.381-1.767c0-3.745,2.099-4.059,4.067-4.059c1.358,0,3.411,0,4.686,4.673
			c0.702,2.573,3.19,4.236,5.836,3.901l6.957-0.881c3.175-0.402,5.29-3.482,4.525-6.59c-2.088-8.483-7.325-14.168-14.755-16.348
			v-3.805c0-2.276-1.845-4.121-4.121-4.121h-7.008c-2.276,0-4.121,1.845-4.121,4.121v4.114c-8.316,2.84-13.947,10.059-13.947,18.993
			c0,12.178,8.51,16.266,16.756,20.226l0.708,0.337c7.774,3.692,9.73,5.103,9.73,8.726c0,2.658-0.636,5.119-5.248,5.119
			c-4.149,0-5.127-0.592-6.055-6.869l0-0.001c-0.422-2.849-3.022-4.854-5.885-4.537l-7.17,0.795
			c-2.946,0.327-5.065,2.984-4.728,5.929v0c1.247,10.891,6.684,17.682,15.838,20.012v3.719c0,2.276,1.845,4.121,4.121,4.121h7.008
			c2.276,0,4.121-1.845,4.121-4.121v-3.737C433.846,381.577,439.986,373.802,439.986,363.211z"/>
		<path style="fill:#12CB1B;" d="M439.932,361.666c-0.007,0.113,0.003,0.235,0.025,0.362c0.018,0.387,0.028,0.781,0.028,1.183
			c0,10.591-6.14,18.367-15.873,20.953v3.737c0,2.276-1.845,4.121-4.121,4.121h-7.008c-2.276,0-4.121-1.845-4.121-4.121v-3.719
			c-9.154-2.33-14.591-9.122-15.838-20.012v0c-0.081-0.704-0.017-1.391,0.161-2.034c1.301,8.883,5.528,14.882,12.42,17.767
			c0.7,0.293,10.883,5.275,21.57,0.032c7.26-3.562,12.22-9.651,12.757-18.27C439.932,361.664,439.932,361.665,439.932,361.666z
			 M420.441,368.002c0,0.001,0,0.002,0,0.004c0.02-0.011,0.036-0.027,0.055-0.038C420.479,367.979,420.458,367.99,420.441,368.002z
			 M411.672,354.671l0.708,0.337c7.774,3.692,9.73,5.103,9.73,8.726c0,1.649-0.247,3.222-1.534,4.178
			c2.294-1.493,2.17-5.833,2.17-6.716c0-3.622-2.591-5.693-10.365-9.385l-0.708-0.337c-7.86-3.774-15.954-7.671-16.695-18.574
			c-0.038,0.509-0.061,1.024-0.061,1.545c0,0.389,0.017,0.752,0.025,1.127C395.452,346.88,403.685,350.836,411.672,354.671z
			 M412.796,334.445c0-3.745,2.099-4.059,4.067-4.059c1.358,0,3.411,0,4.686,4.673c0.702,2.573,3.19,4.236,5.836,3.901l6.957-0.881
			c3.175-0.402,5.29-3.482,4.525-6.59c-0.354-1.439-0.806-2.79-1.337-4.064c1.351,6.404-1.158,7.199-3.189,7.456l-7.586,0.974
			c-1.985,0.356-4.176-1.157-4.707-3.102c-1.534-5.621-3.735-5.566-5.186-5.566c-1.967,0-5.245,0.599-5.245,4.345
			c0,0.617,0.002,3.156,1.442,4.56C412.845,335.859,412.796,335.646,412.796,334.445z M413.105,336.14
			c-0.001-0.001-0.003-0.003-0.004-0.004C413.102,336.137,413.104,336.139,413.105,336.14L413.105,336.14z"/>
		<g>
			<path style="fill:#12CB1B;" d="M407.556,362.569c-0.52-1.495-1.585-2.587-2.737-2.97c-0.665,1.015-0.823,2.532-0.303,4.027
				c0.52,1.495,1.585,2.587,2.737,2.97C407.918,365.581,408.076,364.064,407.556,362.569z"/>
			<path style="fill:#12CB1B;" d="M404.833,374.241c-1.353-0.822-2.87-0.986-4.001-0.548c0.133,1.206,0.977,2.476,2.33,3.298
				c1.353,0.822,2.87,0.986,4.001,0.548C407.03,376.333,406.186,375.063,404.833,374.241z"/>
			<path style="fill:#12CB1B;" d="M416.93,370.407c-1.575,0.157-2.886,0.938-3.527,1.968c0.831,0.884,2.27,1.391,3.845,1.234
				c1.575-0.157,2.886-0.938,3.526-1.968C419.943,370.757,418.505,370.25,416.93,370.407z"/>
			<path style="fill:#12CB1B;" d="M429.733,372.021c-1.078,1.16-1.544,2.612-1.343,3.809c1.208,0.113,2.622-0.458,3.7-1.618
				c1.078-1.16,1.544-2.612,1.343-3.809C432.226,370.29,430.811,370.861,429.733,372.021z"/>
			<path style="fill:#12CB1B;" d="M425.106,362.876c-0.089,1.581,0.48,2.996,1.399,3.788c1.001-0.685,1.725-2.028,1.814-3.608
				c0.089-1.581-0.48-2.996-1.399-3.788C425.918,359.953,425.194,361.295,425.106,362.876z"/>
			<path style="fill:#12CB1B;" d="M430.137,353.027c0.684,1.428,1.864,2.394,3.051,2.646c0.548-1.083,0.535-2.608-0.148-4.036
				c-0.684-1.428-1.864-2.394-3.051-2.646C429.44,350.074,429.453,351.599,430.137,353.027z"/>
			<path style="fill:#12CB1B;" d="M418.626,352.799c1.366,0.8,2.885,0.939,4.01,0.483c-0.153-1.204-1.018-2.46-2.384-3.26
				c-1.366-0.8-2.885-0.939-4.01-0.483C416.395,350.742,417.259,351.999,418.626,352.799z"/>
			<path style="fill:#12CB1B;" d="M413.199,342.578c1.366,0.8,2.885,0.939,4.01,0.483c-0.153-1.204-1.018-2.46-2.384-3.26
				c-1.366-0.8-2.885-0.939-4.01-0.483C410.968,340.522,411.833,341.778,413.199,342.578z"/>
			<path style="fill:#12CB1B;" d="M401.635,338.895c0.866,1.325,2.164,2.127,3.373,2.22c0.4-1.145,0.186-2.656-0.68-3.981
				c-0.866-1.325-2.164-2.127-3.373-2.22C400.555,336.059,400.769,337.569,401.635,338.895z"/>
			<path style="fill:#12CB1B;" d="M400.393,322.995c-0.895,1.306-1.143,2.811-0.768,3.965c1.211-0.066,2.527-0.839,3.422-2.145
				c0.895-1.306,1.143-2.811,0.768-3.965C402.604,320.916,401.289,321.689,400.393,322.995z"/>
			<path style="fill:#12CB1B;" d="M421.404,315.587c-1.552-0.314-3.034,0.047-3.95,0.842c0.534,1.089,1.76,1.998,3.311,2.312
				c1.552,0.314,3.034-0.046,3.95-0.842C424.181,316.81,422.956,315.901,421.404,315.587z"/>
			<path style="fill:#12CB1B;" d="M435.169,328.945c-0.229-1.566-1.069-2.84-2.127-3.433c-0.845,0.871-1.286,2.331-1.057,3.898
				c0.229,1.566,1.069,2.84,2.127,3.433C434.957,331.972,435.398,330.512,435.169,328.945z"/>
			<path style="fill:#12CB1B;" d="M409.738,324.518c-1.139,1.099-1.683,2.525-1.548,3.73c1.2,0.178,2.643-0.315,3.783-1.415
				s1.683-2.525,1.548-3.73C412.32,322.926,410.877,323.419,409.738,324.518z"/>
			<path style="fill:#12CB1B;" d="M423.576,325.447c-1.176-1.06-2.635-1.504-3.829-1.285c-0.094,1.21,0.498,2.615,1.674,3.675
				c1.176,1.06,2.635,1.504,3.829,1.285C425.344,327.913,424.751,326.507,423.576,325.447z"/>
		</g>
	</g>
	<g>
		<g>
			<g>
				<path style="fill:#9C9292;" d="M126.047,430H40.013c-4.448,0-8.053-3.606-8.053-8.053v-12.189h102.141v12.189
					C134.101,426.394,130.495,430,126.047,430z"/>
				<path style="fill:#FFFFFF;" d="M124.465,423H41.596c-5.322,0-9.636-4.314-9.636-9.636v-10.213c0-5.322,4.314-9.636,9.636-9.636
					h82.869c5.322,0,9.636,4.314,9.636,9.636v10.213C134.101,418.686,129.787,423,124.465,423z"/>
				<path style="fill:#12CB1B;" d="M122.67,419.913H43.391c-4.068,0-7.365-3.297-7.365-7.365v-8.581
					c0-4.068,3.297-7.365,7.365-7.365h79.278c4.068,0,7.365,3.297,7.365,7.365v8.581
					C130.035,416.616,126.737,419.913,122.67,419.913z"/>
				<path style="fill:#8EE778;" d="M122.67,396.602H43.391c-4.068,0-7.365,3.297-7.365,7.365v4.581c0,4.068,3.298,7.365,7.365,7.365
					h79.278c4.068,0,7.365-3.297,7.365-7.365v-4.581C130.035,399.9,126.737,396.602,122.67,396.602z"/>
				<g>
					<polygon style="fill:#12CB1B;" points="46.285,399.863 43.402,399.863 44.843,407.296 					"/>
					<polygon style="fill:#12CB1B;" points="56.428,405.758 53.544,405.758 54.986,413.19 					"/>
					<polygon style="fill:#12CB1B;" points="65.634,399.863 62.751,399.863 64.192,407.296 					"/>
					<polygon style="fill:#12CB1B;" points="75.777,405.758 72.893,405.758 74.335,413.19 					"/>
					<polygon style="fill:#12CB1B;" points="84.983,399.863 82.1,399.863 83.541,407.296 					"/>
					<polygon style="fill:#12CB1B;" points="95.126,405.758 92.242,405.758 93.684,413.19 					"/>
					<polygon style="fill:#12CB1B;" points="104.332,399.863 101.449,399.863 102.891,407.296 					"/>
					<polygon style="fill:#12CB1B;" points="114.475,405.758 111.591,405.758 113.033,413.19 					"/>
					<polygon style="fill:#12CB1B;" points="123.681,399.863 120.798,399.863 122.24,407.296 					"/>
				</g>
			</g>
		</g>
		<g>
			<g>
				<path style="fill:#9C9292;" d="M421.154,430h86.034c4.448,0,8.053-3.606,8.053-8.053v-12.189H413.101v12.189
					C413.101,426.394,416.707,430,421.154,430z"/>
				<path style="fill:#FFFFFF;" d="M422.737,423h82.869c5.322,0,9.636-4.314,9.636-9.636v-10.213c0-5.322-4.314-9.636-9.636-9.636
					h-82.869c-5.322,0-9.636,4.314-9.636,9.636v10.213C413.101,418.686,417.415,423,422.737,423z"/>
				<path style="fill:#12CB1B;" d="M424.532,419.913h79.278c4.068,0,7.365-3.297,7.365-7.365v-8.581
					c0-4.068-3.297-7.365-7.365-7.365h-79.278c-4.068,0-7.365,3.297-7.365,7.365v8.581
					C417.167,416.616,420.464,419.913,424.532,419.913z"/>
				<path style="fill:#8EE778;" d="M424.532,396.602h79.278c4.068,0,7.365,3.297,7.365,7.365v4.581c0,4.068-3.297,7.365-7.365,7.365
					h-79.278c-4.068,0-7.365-3.297-7.365-7.365v-4.581C417.167,399.9,420.464,396.602,424.532,396.602z"/>
				<g>
					<polygon style="fill:#12CB1B;" points="500.916,399.863 503.8,399.863 502.358,407.296 					"/>
					<polygon style="fill:#12CB1B;" points="490.774,405.758 493.657,405.758 492.215,413.19 					"/>
					<polygon style="fill:#12CB1B;" points="481.567,399.863 484.451,399.863 483.009,407.296 					"/>
					<polygon style="fill:#12CB1B;" points="471.425,405.758 474.308,405.758 472.866,413.19 					"/>
					<polygon style="fill:#12CB1B;" points="462.218,399.863 465.102,399.863 463.66,407.296 					"/>
					<polygon style="fill:#12CB1B;" points="452.076,405.758 454.959,405.758 453.517,413.19 					"/>
					<polygon style="fill:#12CB1B;" points="442.869,399.863 445.753,399.863 444.311,407.296 					"/>
					<polygon style="fill:#12CB1B;" points="432.727,405.758 435.61,405.758 434.168,413.19 					"/>
					<polygon style="fill:#12CB1B;" points="423.52,399.863 426.404,399.863 424.962,407.296 					"/>
				</g>
			</g>
		</g>
	</g>
</g>
<g id="Lamp">
	<g>
		<path style="fill:#9C9292;" d="M33.066,350.431v-90.11H29.68v90.11c-1.398,0.647-2.37,2.067-2.37,3.719v0.014h8.126v-0.014
			C35.436,352.498,34.463,351.078,33.066,350.431z"/>
		<path style="fill:#666060;" d="M31.373,352.32L31.373,352.32c-3.76,0-6.808,2.928-6.808,6.541v31.803H38.18v-31.803
			C38.18,355.249,35.132,352.32,31.373,352.32z"/>
		<path style="fill:#64686B;" d="M38.253,388.649h-13.76c-0.9,0-1.629,0.73-1.629,1.629l0,0c0,0.9,0.729,1.629,1.629,1.629h13.76
			c0.9,0,1.63-0.729,1.63-1.629l0,0C39.882,389.379,39.153,388.649,38.253,388.649z"/>
		<path style="fill:#666060;" d="M33.811,260.313c0,1.35-1.091,2.444-2.438,2.444c-1.346,0-2.438-1.094-2.438-2.444
			c0-1.35,1.091-2.444,2.438-2.444C32.719,257.869,33.811,258.963,33.811,260.313z"/>
		<g>
			<rect x="48.471" y="265.361" style="fill:#64686B;" width="0.919" height="2.917"/>
			<path style="fill:#EFDDAA;" d="M48.931,282.564c-3.464,0-6.272-2.815-6.272-6.288h12.543
				C55.202,279.749,52.395,282.564,48.931,282.564z"/>
			<path style="fill:#FFFFFF;" d="M48.931,280.637c-2.402,0-4.349-1.952-4.349-4.361h8.699
				C53.28,278.684,51.333,280.637,48.931,280.637z"/>
			<path style="fill:#666060;" d="M48.931,268.129c-4.488,0-8.126,3.647-8.126,8.147h16.252
				C57.057,271.776,53.419,268.129,48.931,268.129z"/>
			<rect x="32.704" y="265.152" style="fill:#9C9292;" width="16.686" height="1.629"/>
			<path style="fill:#9C9292;" d="M47.367,266.766h0.798v-0.82h-1.774c-7.996,0-14.478,6.499-14.478,14.515h1.017
				C33.357,272.828,39.647,266.766,47.367,266.766z"/>
			<path style="fill:#9C9292;" d="M50.539,268.516c0,0.36-0.72,0.652-1.608,0.652c-0.888,0-1.608-0.292-1.608-0.652
				c0-0.36,0.72-0.651,1.608-0.651C49.819,267.864,50.539,268.156,50.539,268.516z"/>
		</g>
		<g>
			
				<rect x="13.326" y="265.361" transform="matrix(-1 -1.224647e-16 1.224647e-16 -1 27.5706 533.6392)" style="fill:#64686B;" width="0.919" height="2.917"/>
			<path style="fill:#EFDDAA;" d="M13.785,282.564c3.464,0,6.272-2.815,6.272-6.288H7.514
				C7.514,279.749,10.321,282.564,13.785,282.564z"/>
			<path style="fill:#FFFFFF;" d="M13.785,280.637c2.402,0,4.349-1.952,4.349-4.361H9.436
				C9.436,278.684,11.383,280.637,13.785,280.637z"/>
			<path style="fill:#666060;" d="M13.785,268.129c4.488,0,8.126,3.647,8.126,8.147H5.659
				C5.659,271.776,9.297,268.129,13.785,268.129z"/>
			
				<rect x="13.326" y="265.152" transform="matrix(-1 -1.224647e-16 1.224647e-16 -1 43.3376 531.9344)" style="fill:#9C9292;" width="16.686" height="1.629"/>
			<path style="fill:#9C9292;" d="M15.349,266.766h-0.798v-0.82h1.774c7.996,0,14.478,6.499,14.478,14.515h-1.017
				C29.359,272.828,23.069,266.766,15.349,266.766z"/>
			<path style="fill:#9C9292;" d="M12.177,268.516c0,0.36,0.72,0.652,1.608,0.652c0.888,0,1.608-0.292,1.608-0.652
				c0-0.36-0.72-0.651-1.608-0.651C12.897,267.864,12.177,268.156,12.177,268.516z"/>
		</g>
	</g>
	<g>
		<path style="fill:#9C9292;" d="M520.349,350.431v-90.11h-3.386v90.11c-1.398,0.647-2.37,2.067-2.37,3.719v0.014h8.126v-0.014
			C522.72,352.498,521.747,351.078,520.349,350.431z"/>
		<path style="fill:#666060;" d="M518.657,352.32L518.657,352.32c-3.76,0-6.808,2.928-6.808,6.541v31.803h13.616v-31.803
			C525.464,355.249,522.416,352.32,518.657,352.32z"/>
		<path style="fill:#64686B;" d="M525.537,388.649h-13.761c-0.9,0-1.629,0.73-1.629,1.629l0,0c0,0.9,0.729,1.629,1.629,1.629h13.761
			c0.9,0,1.629-0.729,1.629-1.629l0,0C527.166,389.379,526.437,388.649,525.537,388.649z"/>
		<path style="fill:#666060;" d="M521.094,260.313c0,1.35-1.091,2.444-2.438,2.444c-1.346,0-2.438-1.094-2.438-2.444
			c0-1.35,1.091-2.444,2.438-2.444C520.003,257.869,521.094,258.963,521.094,260.313z"/>
		<g>
			<rect x="535.755" y="265.361" style="fill:#64686B;" width="0.919" height="2.917"/>
			<path style="fill:#EFDDAA;" d="M536.215,282.564c-3.464,0-6.272-2.815-6.272-6.288h12.543
				C542.486,279.749,539.678,282.564,536.215,282.564z"/>
			<path style="fill:#FFFFFF;" d="M536.215,280.637c-2.402,0-4.349-1.952-4.349-4.361h8.699
				C540.564,278.684,538.617,280.637,536.215,280.637z"/>
			<path style="fill:#666060;" d="M536.215,268.129c-4.488,0-8.126,3.647-8.126,8.147h16.252
				C544.341,271.776,540.703,268.129,536.215,268.129z"/>
			<rect x="519.988" y="265.152" style="fill:#9C9292;" width="16.686" height="1.629"/>
			<path style="fill:#9C9292;" d="M534.651,266.766h0.798v-0.82h-1.774c-7.996,0-14.478,6.499-14.478,14.515h1.017
				C520.641,272.828,526.931,266.766,534.651,266.766z"/>
			<path style="fill:#9C9292;" d="M537.823,268.516c0,0.36-0.72,0.652-1.608,0.652c-0.888,0-1.608-0.292-1.608-0.652
				c0-0.36,0.72-0.651,1.608-0.651C537.103,267.864,537.823,268.156,537.823,268.516z"/>
		</g>
		<g>
			
				<rect x="500.61" y="265.361" transform="matrix(-1 -1.224647e-16 1.224647e-16 -1 1002.1384 533.6392)" style="fill:#64686B;" width="0.919" height="2.917"/>
			<path style="fill:#EFDDAA;" d="M501.069,282.564c3.464,0,6.272-2.815,6.272-6.288h-12.543
				C494.798,279.749,497.605,282.564,501.069,282.564z"/>
			<path style="fill:#FFFFFF;" d="M501.069,280.637c2.402,0,4.349-1.952,4.349-4.361h-8.699
				C496.72,278.684,498.667,280.637,501.069,280.637z"/>
			<path style="fill:#666060;" d="M501.069,268.129c4.488,0,8.126,3.647,8.126,8.147h-16.252
				C492.943,271.776,496.581,268.129,501.069,268.129z"/>
			
				<rect x="500.61" y="265.152" transform="matrix(-1 -1.224647e-16 1.224647e-16 -1 1017.9054 531.9344)" style="fill:#9C9292;" width="16.686" height="1.629"/>
			<path style="fill:#9C9292;" d="M502.633,266.766h-0.798v-0.82h1.774c7.996,0,14.478,6.499,14.478,14.515h-1.017
				C516.643,272.828,510.353,266.766,502.633,266.766z"/>
			<path style="fill:#9C9292;" d="M499.461,268.516c0,0.36,0.72,0.652,1.608,0.652c0.888,0,1.608-0.292,1.608-0.652
				c0-0.36-0.72-0.651-1.608-0.651C500.181,267.864,499.461,268.156,499.461,268.516z"/>
		</g>
	</g>
</g>
</svg>
